<?xml version="1.0" encoding="iso-8859-1"?>
<!-- Generator: Adobe Illustrator 19.0.0, SVG Export Plug-In . SVG Version: 6.00 Build 0)  -->
<svg version="1.1" id="Capa_1" xmlns="http://www.w3.org/2000/svg" xmlns:xlink="http://www.w3.org/1999/xlink" x="0px" y="0px"
	 viewBox="0 0 512 512" style="enable-background:new 0 0 512 512;" xml:space="preserve">
<circle style="fill:#DC691D;" cx="256" cy="256" r="256"/>
<g>
	<path style="fill:#EF9665;" d="M194.207,467.862c-0.945,0-1.907-0.159-2.851-0.477c-18.008-6.135-35.972-15.113-54.934-27.436
		c-4.087-2.657-5.244-8.121-2.586-12.209s8.121-5.244,12.217-2.586c17.717,11.52,34.392,19.862,50.997,25.529
		c4.617,1.571,7.08,6.594,5.508,11.211C201.313,465.549,197.879,467.862,194.207,467.862z"/>
	<path style="fill:#EF9665;" d="M97.112,406.069c-2.586,0-5.146-1.13-6.894-3.31c-1.977-2.463-4.158-5.058-6.409-7.733
		c-7.495-8.925-15.987-19.032-21.071-29.131c-2.198-4.352-0.441-9.657,3.911-11.855c4.352-2.207,9.657-0.441,11.855,3.911
		c4.158,8.263,11.953,17.532,18.82,25.715c2.339,2.781,4.599,5.482,6.665,8.051c3.054,3.805,2.445,9.357-1.359,12.412
		C100.996,405.433,99.046,406.069,97.112,406.069z"/>
</g>
<g>
	<path style="fill:#C5411E;" d="M71.512,79.448c-0.141,0-0.433,0-0.794,0c-5.376,5.641-10.496,11.52-15.351,17.638
		c9.463,0.009,15.907,0.018,16.146,0.018c116.824,0,211.862,112.861,211.862,251.586c0,61.775-14.998,116.454-43.414,158.19
		l-2.895,4.343C243.324,511.691,249.626,512,256,512c0.521,0,1.042-0.035,1.562-0.035c28.363-43.961,43.467-100.193,43.467-163.275
		C301.03,200.227,198.073,79.448,71.512,79.448z"/>
	<path style="fill:#C5411E;" d="M200.969,5.994c-9.26,2.03-18.317,4.573-27.171,7.565l8.289,3.452
		c118.131,47.545,197.5,195.028,197.5,366.989c0,27.763-4.334,54.987-8.536,81.311l-4.829,21.786
		c7.044-3.363,13.895-7.062,20.559-11.034l1.51-6.815l0.185-1.156c4.317-27.012,8.766-54.934,8.766-84.092
		C397.241,210.812,318.852,61.043,200.969,5.994z"/>
	<path style="fill:#C5411E;" d="M498.547,336.49c-39.495-25.167-65.995-99.955-65.995-186.421c0-24.991,2.489-49.214,7.203-72.218
		c-4.988-5.146-10.187-10.063-15.59-14.777l-0.68,5.844c-5.703,25.741-8.589,53.036-8.589,81.152
		c0,94.12,29.352,173.285,74.77,201.693c0.327,0.203,0.671,0.388,1.024,0.547l2.127,0.962c2.233-5.438,4.273-10.982,6.135-16.605
		L498.547,336.49z"/>
	<path style="fill:#C5411E;" d="M504.444,194.207c-1.474-5.959-3.178-11.829-5.067-17.62
		c-201.437-1.095-365.021,52.674-486.347,160.044c1.995,6.003,4.158,11.926,6.577,17.726l3.919-3.478
		C142.38,245.089,303.74,192.415,503.172,194.207H504.444z"/>
</g>
<g>
</g>
<g>
</g>
<g>
</g>
<g>
</g>
<g>
</g>
<g>
</g>
<g>
</g>
<g>
</g>
<g>
</g>
<g>
</g>
<g>
</g>
<g>
</g>
<g>
</g>
<g>
</g>
<g>
</g>
</svg>
