<svg height="512" viewBox="0 0 64 64" width="512" xmlns="http://www.w3.org/2000/svg"><g id="Racing_Car-3" data-name="Racing Car"><circle cx="17" cy="42" fill="#57565c" r="6"/><circle cx="49" cy="42" fill="#57565c" r="6"/><path d="m7 22 2 4h-4l-2-4z" fill="#ff5023"/><path d="m5 30v-4h21l8 16h-11a6 6 0 0 0 -12 0h-4a2.006 2.006 0 0 1 -2-2z" fill="#ff6243"/><path d="m61 38v2a2.006 2.006 0 0 1 -2 2h-4a6 6 0 0 0 -12 0h-9l-8-16h27a7.969 7.969 0 0 1 6.92 4h-3.92a1 1 0 0 0 -1 1v2a1 1 0 0 0 1 1h5z" fill="#ff7956"/><path d="m21 16 5 10h-17z" fill="#d1d3d4"/><path d="m61 34h-5a1 1 0 0 1 -1-1v-2a1 1 0 0 1 1-1h3.92a7.851 7.851 0 0 1 1.08 4z" fill="#e6e7e8"/><path d="m50 26h-24l-5-10h14z" fill="#e6e7e8"/><path d="m17 49a7 7 0 1 1 7-7 7.008 7.008 0 0 1 -7 7zm0-12a5 5 0 1 0 5 5 5.006 5.006 0 0 0 -5-5z" fill="#3e3d42"/><path d="m49 49a7 7 0 1 1 7-7 7.008 7.008 0 0 1 -7 7zm0-12a5 5 0 1 0 5 5 5.006 5.006 0 0 0 -5-5z" fill="#3e3d42"/><path d="m57 37h4v2h-4z" fill="#ee8700"/><path d="m32 29h4v2h-4z" fill="#ff5023"/><path d="m16 41h2v2h-2z" fill="#3e3d42"/><path d="m48 41h2v2h-2z" fill="#3e3d42"/><path d="m5 29h4v2h-4z" fill="#ee8700"/></g></svg>