<svg height="511pt" viewBox="-45 0 511 511.99958" width="511pt" xmlns="http://www.w3.org/2000/svg"><path d="m104.644531 133.34375s-42.695312-69.332031-15.199219-122.300781c52.21875-28.894531 112.109376 8.046875 112.109376 8.046875zm0 0" fill="#e9a577"/><path d="m82.632812 268.535156c7.589844 19.457032 10.589844 37.785156 13.25 54.140625 3.125 19.164063 5.601563 34.285157 14.433594 45.941407 3.707032 4.886718 15 19.769531 61.296875 31.078124 12.605469 3.082032 20.332031 15.800782 17.253907 28.410157-2.632813 10.734375-12.230469 17.921875-22.8125 17.921875-1.847657 0-3.726563-.222656-5.597657-.671875-42.640625-10.421875-70.464843-25.785157-87.582031-48.332031-15.894531-20.960938-19.695312-44.25-23.371094-66.777344-1.847656-11.375-3.664062-22.507813-6.925781-33.640625l13.101563-34.214844zm0 0" fill="#e9a577"/><path d="m82.632812 268.535156c-12.679687 13.105469-27.21875 22.066406-40.054687 28.070313-5.410156-18.527344-14.796875-37.035157-34.953125-56.613281-9.308594-9.046876-9.527344-23.917969-.480469-33.222657 9.042969-9.316406 23.925781-9.523437 33.230469-.480469 21.941406 21.316407 34.507812 42.371094 42.257812 62.246094zm0 0" fill="#e9e9e9"/><path d="m171.613281 399.699219c-27.792969-6.792969-42.960937-14.867188-51.457031-21.296875-2.804688 11.53125-4.59375 24.050781-4.25 37.570312.125 4.972656.539062 9.90625 1.226562 14.816406 12.359376 5.691407 26.710938 10.507813 43.324219 14.566407 1.871094.449219 3.75.671875 5.597657.671875 10.582031 0 20.179687-7.1875 22.8125-17.921875 3.078124-12.605469-4.648438-25.328125-17.253907-28.40625zm0 0" fill="#e48949"/><path d="m335.964844 340.230469h-169.628906c-15.242188 40.039062-43.207032 89.125 19.484374 159.003906 7.28125 8.113281 17.664063 12.765625 28.566407 12.765625h73.53125c10.898437 0 21.285156-4.652344 28.5625-12.765625 62.695312-69.878906 34.730469-118.964844 19.484375-159.003906zm0 0" fill="#e9e9e9"/><path d="m303.890625 414.800781c-4.265625 0-7.722656 3.460938-7.722656 7.726563 0 39.984375-15.421875 86.554687-15.578125 87.019531-.273438.8125-.394532 1.640625-.394532 2.453125h7.71875c2.859376 0 5.675782-.328125 8.417969-.945312 3.6875-11.835938 15.285157-51.96875 15.285157-88.527344 0-4.265625-3.457032-7.726563-7.726563-7.726563zm0 0" fill="#d3d2d8"/><path d="m397.660156 133.34375s42.695313-69.332031 15.195313-122.300781c-52.21875-28.894531-112.109375 8.046875-112.109375 8.046875zm0 0" fill="#e9a577"/><path d="m413.714844 97.84375c-17-39.703125-48.132813-71.964844-87.035156-90.429688-15.695313 5.363282-25.933594 11.671876-25.933594 11.671876l96.914062 114.253906c0 .003906 8.980469-14.589844 16.054688-35.496094zm0 0" fill="#e48949"/><path d="m88.589844 97.84375c7.070312 20.90625 16.054687 35.5 16.054687 35.5l96.910157-114.253906s-10.238282-6.3125-25.929688-11.675782c-38.90625 18.464844-70.039062 50.726563-87.035156 90.429688zm0 0" fill="#e48949"/><path d="m390.808594 47.433594c-.734375-7.710938-6.65625-13.9375-14.316406-15.074219-3.222657-.480469-6.4375-.691406-9.609376-.691406-24.996093 0-47.320312 13.191406-47.621093 13.375l53.742187 69.148437c6.828125-11.222656 20.285156-40.773437 17.804688-66.757812zm0 0" fill="#e9e9e9"/><path d="m111.492188 47.433594c.738281-7.710938 6.65625-13.9375 14.320312-15.074219 3.21875-.480469 6.433594-.691406 9.605469-.691406 24.996093 0 47.324219 13.191406 47.625 13.375l-53.746094 69.148437c-6.824219-11.222656-20.285156-40.773437-17.804687-66.757812zm0 0" fill="#e9e9e9"/><path d="m335.964844 340.230469c-26.265625 12.878906-55.351563 19.632812-84.8125 19.632812-29.464844 0-58.550782-6.753906-84.816406-19.632812 5.097656-13.390625 8.773437-25.773438 7.15625-37.578125h155.320312c-1.621094 11.804687 2.054688 24.191406 7.152344 37.578125zm0 0" fill="#e08778"/><path d="m111.375 59.148438c1.488281 22.625 12.109375 45.480468 17.921875 55.042968l53.746094-69.148437c-.292969-.179688-21.238281-12.554688-45.261719-13.339844-9.75 8.175781-18.609375 17.378906-26.40625 27.445313zm0 0" fill="#d3d2d8"/><path d="m390.929688 59.148438c-7.796876-10.066407-16.65625-19.269532-26.40625-27.441407-24.023438.78125-44.96875 13.15625-45.261719 13.335938l53.742187 69.148437c5.816406-9.5625 16.4375-32.417968 17.925782-55.042968zm0 0" fill="#d3d2d8"/><path d="m173.492188 302.65625c-46.894532-26.9375-78.476563-77.515625-78.476563-135.480469 0-86.234375 69.898437-156.132812 156.132813-156.132812 86.238281 0 156.136718 69.898437 156.136718 156.132812 0 57.964844-31.582031 108.542969-78.476562 135.480469zm0 0" fill="#e9a577"/><path d="m328.8125 302.65625c-.011719 0-.011719.007812-.011719.007812-22.871093 13.136719-49.378906 20.648438-77.648437 20.648438-28.273438 0-54.777344-7.511719-77.652344-20.648438 0 0 0-.007812-.007812-.007812-46.945313-66.496094-7.519532-100.410156 14.996093-113.160156 7.5-4.25 14.027344-10.046875 18.820313-17.199219 6.746094-10.078125 20.144531-23.394531 43.84375-23.394531 23.695312 0 37.097656 13.316406 43.84375 23.394531 4.792968 7.152344 11.320312 12.949219 18.816406 17.199219 22.519531 12.75 61.945312 46.664062 15 113.160156zm0 0" fill="#e9e9e9"/><g fill="#424952"><path d="m181.167969 143.933594c-4.265625 0-7.726563 3.457031-7.726563 7.726562v13.710938c0 4.265625 3.460938 7.726562 7.726563 7.726562s7.726562-3.460937 7.726562-7.726562v-13.710938c0-4.269531-3.460937-7.726562-7.726562-7.726562zm0 0"/><path d="m321.132812 143.933594c-4.265624 0-7.722656 3.457031-7.722656 7.726562v13.710938c0 4.265625 3.457032 7.726562 7.722656 7.726562 4.269532 0 7.726563-3.460937 7.726563-7.726562v-13.710938c0-4.269531-3.457031-7.726562-7.726563-7.726562zm0 0"/><path d="m234.066406 183.367188c5.195313 2.234374 10.980469 3.484374 17.085938 3.484374 6.101562 0 11.890625-1.25 17.085937-3.484374 5.449219-2.347657 3.789063-10.480469-2.148437-10.480469h-29.878906c-5.933594.003906-7.59375 8.132812-2.144532 10.480469zm0 0"/><path d="m287.207031 196.894531c-3.214843-2.808593-8.09375-2.480469-10.902343.734375-2.339844 2.675782-5.863282 4.207032-9.667969 4.207032-3.804688 0-7.328125-1.53125-9.667969-4.207032-1.457031-1.667968-3.609375-2.636718-5.820312-2.636718-2.1875.003906-4.363282.976562-5.8125 2.636718-2.339844 2.675782-5.863282 4.207032-9.667969 4.207032-3.808594 0-7.332031-1.53125-9.667969-4.207032-2.8125-3.214844-7.691406-3.542968-10.902344-.734375-3.214844 2.808594-3.542968 7.691407-.734375 10.902344 5.273438 6.035156 13.039063 9.492187 21.304688 9.492187 5.597656 0 10.964843-1.589843 15.484375-4.488281 4.519531 2.898438 9.886718 4.488281 15.484375 4.488281 8.265625 0 16.027343-3.457031 21.300781-9.492187 2.808594-3.210937 2.480469-8.09375-.730469-10.902344zm0 0"/></g><path d="m271.550781 371.351562c0 11.269532-9.132812 20.402344-20.398437 20.402344s-20.402344-9.132812-20.402344-20.402344c0-11.265624 9.136719-20.398437 20.402344-20.398437s20.398437 9.132813 20.398437 20.398437zm0 0" fill="#e1ba68"/><path d="m206.136719 422.527344c0-4.265625-3.460938-7.726563-7.726563-7.726563s-7.726562 3.460938-7.726562 7.726563c0 36.558594 11.597656 76.691406 15.289062 88.527344 2.738282.617187 5.558594.945312 8.414063.945312h7.722656c0-.8125-.125-1.640625-.394531-2.453125-.15625-.464844-15.578125-47.035156-15.578125-87.019531zm0 0" fill="#d3d2d8"/><path d="m251.152344 414.800781c-4.269532 0-7.726563 3.460938-7.726563 7.726563v89.472656h15.453125v-89.472656c0-4.265625-3.460937-7.726563-7.726562-7.726563zm0 0" fill="#d3d2d8"/></svg>