<?xml version="1.0" encoding="iso-8859-1"?>
<!-- Generator: Adobe Illustrator 19.0.0, SVG Export Plug-In . SVG Version: 6.00 Build 0)  -->
<svg version="1.1" id="Capa_1" xmlns="http://www.w3.org/2000/svg" xmlns:xlink="http://www.w3.org/1999/xlink" x="0px" y="0px"
	 viewBox="0 0 512 512" style="enable-background:new 0 0 512 512;" xml:space="preserve">
<path style="fill:#D9CCBC;" d="M427.818,294.165c0,138.464-65.543,205.831-149.304,216.361c-7.852,0.989-15.858,1.473-23.988,1.473
	c-94.889,0-170.344-66.398-170.344-217.835C84.182,142.739,180.885-1.34,256,0.009c8.078,0.144,16.156,1.525,24.173,4.049
	C357.143,28.263,427.818,157.01,427.818,294.165z"/>
<path style="fill:#EBE5DD;" d="M427.818,294.165c0,138.464-65.543,205.831-149.304,216.361
	c-83.348-10.531-146.419-77.898-146.419-216.361c0-135.847,77.836-265.789,148.077-290.106
	C357.143,28.263,427.818,157.01,427.818,294.165z"/>
<g>
</g>
<g>
</g>
<g>
</g>
<g>
</g>
<g>
</g>
<g>
</g>
<g>
</g>
<g>
</g>
<g>
</g>
<g>
</g>
<g>
</g>
<g>
</g>
<g>
</g>
<g>
</g>
<g>
</g>
</svg>
