<svg id="color" enable-background="new 0 0 24 24" height="512" viewBox="0 0 24 24" width="512" xmlns="http://www.w3.org/2000/svg"><path d="m8.268 14.183c-.22.099-.473.033-.628-.143l-3.039-3.4c-.769-.847-2.141-.083-1.806 1.02.518 1.569 1.828 5.495 2.995 7.81 1.321 2.622 2.213 4.026 2.554 4.53h8.202c.793-1.393 4.349-8.106 4.701-16.146.046-.822-1.14-1.059-1.409-.285l-1.817 5.166c-.099.263-.374.417-.661.351-.275-.077-.451-.34-.407-.625l1.42-9.104c.3-1.24-1.509-1.681-1.828-.505l-1.894 9.192c-.055.274-.308.483-.606.439-.275-.033-.495-.285-.484-.57l.352-10.75c.124-1.443-1.972-1.568-2.081-.197l-.473 10.991c-.011.285-.242.516-.529.526-.297 0-.529-.197-.561-.483l-1.076-9.192c-.199-1.094-1.973-.892-1.783.307l1.189 10.497c.022.242-.11.472-.331.571z" fill="#ffcc80"/></svg>