<?xml version="1.0" encoding="iso-8859-1"?>
<!-- Generator: Adobe Illustrator 19.0.0, SVG Export Plug-In . SVG Version: 6.00 Build 0)  -->
<svg version="1.1" id="Capa_1" xmlns="http://www.w3.org/2000/svg" xmlns:xlink="http://www.w3.org/1999/xlink" x="0px" y="0px"
	 viewBox="0 0 512.001 512.001" style="enable-background:new 0 0 512.001 512.001;" xml:space="preserve">
<polyline style="fill:#C97523;" points="131.202,348.955 131.202,455.833 86.363,455.833 86.363,348.938 "/>
<polyline style="fill:#A85613;" points="106.363,348.955 106.363,455.833 86.363,455.833 86.363,348.938 "/>
<ellipse style="fill:#8CC928;" cx="108.782" cy="201.393" rx="108.782" ry="171.015"/>
<path style="fill:#82B20B;" d="M108.782,372.411C48.698,372.411,0,295.84,0,201.396S48.698,30.381,108.782,30.381
	c-26.601,0-48.155,76.571-48.155,171.015S82.181,372.411,108.782,372.411z"/>
<polygon style="fill:#E9EAEF;" points="468.698,263.882 468.698,481.621 183.04,481.621 183.04,263.882 326.674,124.549 "/>
<polyline style="fill:#9EB1B7;" points="398.802,187.006 398.802,146.786 470.217,146.786 470.217,255.017 "/>
<polyline style="fill:#879BA0;" points="398.802,187.006 398.802,146.786 415.953,146.786 415.953,255.017 "/>
<g>
	<path style="fill:#85C10D;" d="M354.204,435.996h143.137c8.096,0,14.66,6.563,14.66,14.66v30.967H339.544v-30.967
		C339.544,442.559,346.107,435.996,354.204,435.996z"/>
	<path style="fill:#85C10D;" d="M14.66,435.996h166.026c8.096,0,14.66,6.563,14.66,14.66v30.967H0v-30.967
		C0,442.559,6.563,435.996,14.66,435.996z"/>
</g>
<polygon style="fill:#D2D4D8;" points="468.698,272.43 468.698,313.129 325.869,176.757 183.04,313.129 183.04,272.43 
	314.525,147.203 325.869,136.666 337.204,147.203 "/>
<polygon style="fill:#EA4756;" points="325.865,154.108 163.246,309.368 140.507,290.279 314.527,124.549 325.865,114.017 
	337.205,124.549 511.225,290.279 488.486,309.368 "/>
<rect x="217.982" y="318.486" style="fill:#C97523;" width="94.204" height="163.132"/>
<path style="fill:#8E480E;" d="M318.971,481.621h-13.556V325.262h-80.65v156.359h-13.556V318.484c0-3.744,3.034-6.778,6.778-6.778
	h94.207c3.744,0,6.778,3.034,6.778,6.778V481.621z"/>
<rect x="339.549" y="318.486" style="fill:#A0D9F2;" width="107.281" height="94.204"/>
<rect x="339.549" y="318.486" style="fill:#C97523;" width="107.281" height="28.626"/>
<g>
	<path style="fill:#8E480E;" d="M446.822,419.47H339.544c-3.744,0-6.778-3.034-6.778-6.778v-94.206c0-3.744,3.034-6.778,6.778-6.778
		h107.279c3.744,0,6.778,3.034,6.778,6.778v94.206C453.6,416.434,450.566,419.47,446.822,419.47z M346.322,405.914h93.723v-80.65
		h-93.723V405.914z"/>
	<path style="fill:#8E480E;" d="M291.023,406.308h-13.674c-3.744,0-6.778-3.034-6.778-6.778s3.034-6.778,6.778-6.778h13.674
		c3.744,0,6.778,3.034,6.778,6.778S294.766,406.308,291.023,406.308z"/>
</g>
<circle style="fill:#413740;" cx="325.868" cy="245.69" r="26.205"/>
<rect x="339.549" y="340.332" style="fill:#8E480E;" width="107.281" height="13.556"/>
<path style="fill:#EA4756;" d="M325.869,278.679c-18.189,0-32.987-14.798-32.987-32.987s14.797-32.987,32.987-32.987
	s32.988,14.798,32.988,32.987C358.856,263.881,344.058,278.679,325.869,278.679z M325.869,226.261
	c-10.713,0-19.431,8.717-19.431,19.431s8.717,19.431,19.431,19.431s19.432-8.717,19.432-19.431S336.583,226.261,325.869,226.261z"/>
<g>
	<path style="fill:#85C10D;" d="M46.925,449.03c-4.32,0-7.821-3.502-7.821-7.821v-19.787c0-4.319,3.501-7.821,7.821-7.821
		s7.821,3.502,7.821,7.821v19.787C54.746,445.529,51.244,449.03,46.925,449.03z"/>
	<path style="fill:#85C10D;" d="M21.803,449.03c-4.32,0-7.821-3.502-7.821-7.821v-19.787c0-4.319,3.501-7.821,7.821-7.821
		s7.821,3.502,7.821,7.821v19.787C29.624,445.529,26.123,449.03,21.803,449.03z"/>
	<path style="fill:#85C10D;" d="M157.12,449.03c-4.32,0-7.821-3.502-7.821-7.821v-19.787c0-4.319,3.501-7.821,7.821-7.821
		c4.32,0,7.821,3.502,7.821,7.821v19.787C164.941,445.529,161.441,449.03,157.12,449.03z"/>
</g>
<g>
</g>
<g>
</g>
<g>
</g>
<g>
</g>
<g>
</g>
<g>
</g>
<g>
</g>
<g>
</g>
<g>
</g>
<g>
</g>
<g>
</g>
<g>
</g>
<g>
</g>
<g>
</g>
<g>
</g>
</svg>
