<?xml version="1.0" encoding="iso-8859-1"?>
<!-- Generator: Adobe Illustrator 19.0.0, SVG Export Plug-In . SVG Version: 6.00 Build 0)  -->
<svg version="1.1" id="Capa_1" xmlns="http://www.w3.org/2000/svg" xmlns:xlink="http://www.w3.org/1999/xlink" x="0px" y="0px"
	 viewBox="0 0 512 512" style="enable-background:new 0 0 512 512;" xml:space="preserve">
<g>
	<path style="fill:#F996B1;" d="M163.831,313.825c0-22.225-8.917-34.736-14.818-43.016c-3.74-5.248-5.061-7.256-5.603-11.033
		c-0.533-3.723-3.723-6.488-7.484-6.488h-33.212c-2.099,0-4.102,0.872-5.533,2.407c-1.431,1.535-2.158,3.596-2.009,5.69
		c1.337,18.831,9.319,30.031,14.605,37.447c4.379,6.145,5.854,8.214,5.854,14.994c0,6.778-1.475,8.846-5.858,14.997
		c-5.9,8.279-14.816,20.79-14.816,43.014c0,22.226,8.916,34.738,14.822,43.026c4.377,6.144,5.852,8.213,5.852,14.993
		c0,6.781-1.475,8.85-5.858,15.001c-5.901,8.279-14.817,20.792-14.817,43.018c0,13.301,10.811,24.124,24.101,24.124
		s24.1-10.821,24.1-24.124c0-6.782,1.475-8.851,5.858-15.002c5.9-8.279,14.816-20.792,14.816-43.016
		c0-22.222-8.914-34.734-14.818-43.019c-4.381-6.147-5.856-8.217-5.856-15c0-6.78,1.475-8.849,5.858-14.998
		C154.915,348.561,163.831,336.05,163.831,313.825z"/>
	<path style="fill:#F996B1;" d="M238.254,313.825c0-22.227-8.918-34.737-14.819-43.016c-3.74-5.247-5.061-7.255-5.602-11.033
		c-0.533-3.723-3.723-6.488-7.484-6.488h-33.213c-2.099,0-4.102,0.872-5.533,2.407c-1.431,1.535-2.158,3.596-2.009,5.689
		c1.337,18.83,9.32,30.031,14.603,37.444c4.38,6.146,5.856,8.216,5.856,14.996s-1.475,8.848-5.856,14.997
		c-5.9,8.278-14.817,20.788-14.817,43.015s8.916,34.739,14.82,43.023c4.378,6.145,5.854,8.214,5.854,14.997
		c0,6.782-1.475,8.852-5.856,15c-5.901,8.279-14.817,20.79-14.817,43.018c0,13.301,10.811,24.124,24.1,24.124
		c13.289,0,24.101-10.821,24.101-24.124c0-6.783,1.476-8.853,5.858-15.002c5.9-8.279,14.816-20.792,14.816-43.016
		c0-22.222-8.914-34.734-14.818-43.02c-4.38-6.146-5.856-8.215-5.856-14.999c0-6.78,1.475-8.85,5.855-14.996
		C229.337,348.563,238.254,336.051,238.254,313.825z"/>
	<path style="fill:#F996B1;" d="M397.955,429.857c0-6.782,1.475-8.851,5.857-15.002c5.901-8.28,14.817-20.792,14.817-43.017
		c0-22.226-8.918-34.737-14.822-43.02c-4.377-6.144-5.852-8.213-5.852-14.992c0-6.78,1.475-8.85,5.856-14.997
		c5.283-7.412,13.267-18.612,14.603-37.443c0.148-2.093-0.579-4.155-2.009-5.69c-1.43-1.535-3.434-2.407-5.533-2.407h-33.213
		c-3.761,0-6.951,2.764-7.484,6.488c-0.542,3.777-1.863,5.785-5.605,11.035c-5.901,8.278-14.816,20.789-14.816,43.014
		c0,22.223,8.916,34.734,14.82,43.019c4.379,6.144,5.855,8.213,5.855,14.993c0,6.783-1.476,8.852-5.863,15.007
		c-5.899,8.279-14.812,20.79-14.812,43.012c0,22.223,8.915,34.736,14.82,43.022c4.379,6.146,5.855,8.216,5.855,14.997
		c0,13.301,10.811,24.124,24.1,24.124c13.289,0,24.102-10.821,24.102-24.124c0-22.226-8.917-34.738-14.82-43.02
		C399.431,438.709,397.955,436.639,397.955,429.857z"/>
	<path style="fill:#F996B1;" d="M344.205,371.838c0-22.225-8.917-34.737-14.818-43.015c-4.38-6.146-5.855-8.215-5.855-14.997
		c0-6.782,1.475-8.852,5.855-14.997c5.283-7.412,13.266-18.612,14.603-37.443c0.148-2.093-0.579-4.154-2.009-5.689
		c-1.43-1.535-3.434-2.407-5.533-2.407h-33.212c-3.761,0-6.95,2.764-7.484,6.487c-0.542,3.778-1.863,5.785-5.603,11.033
		c-5.901,8.278-14.819,20.789-14.819,43.016c0,22.226,8.917,34.737,14.82,43.019c4.378,6.145,5.854,8.214,5.854,14.993
		c0,6.783-1.476,8.853-5.858,15.004c-5.9,8.279-14.815,20.791-14.815,43.015c0,22.226,8.917,34.738,14.82,43.022
		c4.379,6.146,5.854,8.215,5.854,14.997c0,13.301,10.812,24.124,24.102,24.124c13.288,0,24.1-10.821,24.1-24.124
		c0-22.225-8.916-34.737-14.817-43.018c-4.38-6.146-5.856-8.216-5.856-15c0-6.784,1.476-8.854,5.858-15.004
		C335.291,406.574,344.205,394.062,344.205,371.838z"/>
</g>
<g>
	<path style="fill:#F28598;" d="M99.501,280.867h56.057c-2.22-3.97-4.553-7.264-6.545-10.058c-3.74-5.248-5.061-7.256-5.603-11.033
		c-0.533-3.723-3.723-6.488-7.484-6.488h-33.212c-2.099,0-4.102,0.872-5.533,2.407c-1.431,1.535-2.158,3.596-2.009,5.69
		C95.717,269.068,97.378,275.464,99.501,280.867z"/>
	<path style="fill:#F28598;" d="M173.923,280.867h56.057c-2.22-3.97-4.553-7.264-6.545-10.058c-3.74-5.247-5.061-7.255-5.602-11.033
		c-0.533-3.723-3.723-6.488-7.484-6.488h-33.213c-2.099,0-4.102,0.872-5.533,2.407c-1.431,1.535-2.158,3.596-2.009,5.689
		C170.14,269.068,171.8,275.464,173.923,280.867z"/>
	<path style="fill:#F28598;" d="M414.085,280.867c2.124-5.404,3.784-11.799,4.329-19.482c0.148-2.093-0.579-4.155-2.009-5.69
		c-1.43-1.535-3.434-2.407-5.533-2.407h-33.213c-3.761,0-6.951,2.764-7.484,6.488c-0.542,3.777-1.863,5.785-5.605,11.035
		c-1.991,2.794-4.323,6.087-6.543,10.056H414.085z"/>
	<path style="fill:#F28598;" d="M339.661,280.867c2.124-5.404,3.784-11.799,4.33-19.482c0.148-2.093-0.579-4.154-2.009-5.689
		c-1.43-1.535-3.434-2.407-5.533-2.407h-33.212c-3.761,0-6.95,2.764-7.484,6.487c-0.542,3.778-1.863,5.785-5.603,11.033
		c-1.992,2.795-4.325,6.089-6.545,10.059L339.661,280.867L339.661,280.867z"/>
</g>
<path style="fill:#F996B1;" d="M256,0c-43.713,0-85.022,14.097-119.5,40.773c-0.17,0.119-0.338,0.247-0.501,0.382
	c-66.494,55.039-75.46,108.889-75.46,154.307c0,23.368,4.091,46.242,12.158,67.987c1.1,2.964,3.928,4.931,7.089,4.931h352.426
	c3.162,0,5.989-1.967,7.089-4.931c8.068-21.745,12.158-44.618,12.158-67.987C451.46,87.684,363.777,0,256,0z"/>
<path style="fill:#F98DA8;" d="M256,0c-4.115,0-8.209,0.125-12.277,0.374C345.97,6.555,427.266,91.686,427.266,195.461
	c0,23.368-4.091,46.242-12.158,67.987c-1.1,2.964-3.928,4.931-7.089,4.931h24.195c3.161,0,5.989-1.967,7.089-4.931
	c8.068-21.745,12.158-44.618,12.158-67.987C451.46,87.684,363.777,0,256,0z"/>
<g>
	<path style="fill:#F28598;" d="M132.561,179.19c-14.545,0-26.379,11.834-26.379,26.38c0,14.545,11.834,26.38,26.379,26.38
		c14.546,0,26.38-11.834,26.38-26.38C158.941,191.024,147.107,179.19,132.561,179.19z"/>
	<path style="fill:#F28598;" d="M252.193,179.19c-14.546,0-26.38,11.834-26.38,26.38c0,14.545,11.834,26.38,26.38,26.38
		c14.545,0,26.38-11.834,26.38-26.38C278.572,191.024,266.739,179.19,252.193,179.19z"/>
	<path style="fill:#F28598;" d="M371.825,179.19c-14.545,0-26.379,11.834-26.379,26.38c0,14.545,11.834,26.38,26.379,26.38
		c14.545,0,26.38-11.834,26.38-26.38C398.205,191.024,386.371,179.19,371.825,179.19z"/>
</g>
<path style="fill:#F98DA8;" d="M403.473,81.872c-34.428,29.563-73.884,47.47-123.344,56.097
	c-55.114,9.616-149.957,1.252-181.222-15.976c-3.657-2.014-8.256-0.685-10.271,2.973s-0.685,8.257,2.973,10.271
	c24.396,13.443,81.508,21.905,133.56,21.905c20.795,0,40.79-1.352,57.558-4.277c51.904-9.053,93.457-27.856,129.821-58.862
	C409.4,90.06,406.402,85.994,403.473,81.872z"/>
<g>
	<circle style="fill:#F28598;" cx="118.557" cy="478.13" r="8.738"/>
	<circle style="fill:#F28598;" cx="140.06" cy="429.739" r="8.738"/>
	<circle style="fill:#F28598;" cx="117.145" cy="376.56" r="8.738"/>
	<circle style="fill:#F28598;" cx="195.175" cy="478.13" r="8.738"/>
	<circle style="fill:#F28598;" cx="216.679" cy="429.739" r="8.738"/>
	<circle style="fill:#F28598;" cx="193.764" cy="376.56" r="8.738"/>
	<circle style="fill:#F28598;" cx="321.122" cy="377.568" r="8.738"/>
	<circle style="fill:#F28598;" cx="299.618" cy="425.958" r="8.738"/>
	<circle style="fill:#F28598;" cx="322.533" cy="479.138" r="8.738"/>
	<circle style="fill:#F28598;" cx="396.127" cy="377.568" r="8.738"/>
	<circle style="fill:#F28598;" cx="374.624" cy="425.958" r="8.738"/>
	<circle style="fill:#F28598;" cx="397.549" cy="479.138" r="8.738"/>
</g>
<g>
</g>
<g>
</g>
<g>
</g>
<g>
</g>
<g>
</g>
<g>
</g>
<g>
</g>
<g>
</g>
<g>
</g>
<g>
</g>
<g>
</g>
<g>
</g>
<g>
</g>
<g>
</g>
<g>
</g>
</svg>
