<svg height="511pt" viewBox="-83 0 511 511.99999" width="511pt" xmlns="http://www.w3.org/2000/svg"><path d="m323.234375 131.128906c-2.882813-3.101562-6.921875-4.859375-11.15625-4.859375h-228.128906c-4.230469 0-8.273438 1.757813-11.152344 4.859375-2.882813 3.101563-4.34375 7.257813-4.035156 11.480469l25.992187 355.273437c.582032 7.957032 7.207032 14.117188 15.1875 14.117188h176.160156c7.980469 0 14.605469-6.160156 15.1875-14.117188l25.976563-355.273437c.308594-4.222656-1.152344-8.382813-4.03125-11.480469zm0 0" fill="#f7b545"/><path d="m83.949219 126.269531c-4.230469 0-8.273438 1.757813-11.152344 4.859375-2.882813 3.101563-4.34375 7.257813-4.035156 11.480469l25.992187 355.273437c.582032 7.957032 7.207032 14.117188 15.1875 14.117188h88.074219v-385.730469zm0 0" fill="#fecb5b"/><path d="m327.265625 142.605469c.308594-4.21875-1.152344-8.378907-4.03125-11.480469-2.882813-3.097656-6.925781-4.859375-11.15625-4.859375h-228.128906c-4.230469 0-8.273438 1.761719-11.152344 4.863281-2.882813 3.097656-4.34375 7.257813-4.035156 11.480469l8.308593 113.5625h241.894532zm0 0" fill="#e3e4e8"/><path d="m83.949219 126.269531c-4.230469 0-8.273438 1.757813-11.152344 4.859375-2.882813 3.101563-4.34375 7.257813-4.035156 11.480469l8.308593 113.5625h120.945313v-129.902344zm0 0" fill="#f4f4f6"/><path d="m82.597656 222.277344c-45.269531 0-82.097656-36.828125-82.097656-82.097656 0-45.269532 36.828125-82.097657 82.097656-82.097657 45.269532 0 82.097656 36.828125 82.097656 82.097657 0 45.269531-36.828124 82.097656-82.097656 82.097656zm0 0" fill="#f7b545"/><path d="m30.960938 140.179688c0-28.476563 23.164062-51.640626 51.636718-51.640626 23.65625 0 43.628906 15.992188 49.722656 37.730469h31.171876c-6.628907-38.664062-40.367188-68.1875-80.894532-68.1875-45.269531 0-82.097656 36.828125-82.097656 82.097657 0 42.554687 32.550781 77.644531 74.0625 81.699218l-2.277344-31.097656c-23.550781-4.792969-41.324218-25.660156-41.324218-50.601562zm0 0" fill="#f7b545"/><path d="m82.597656 88.539062c-28.472656 0-51.636718 23.164063-51.636718 51.636719 0 24.945313 17.777343 45.8125 41.324218 50.605469l-3.523437-48.171875c-.308594-4.222656 1.152343-8.382813 4.035156-11.480469 2.878906-3.101562 6.921875-4.863281 11.152344-4.863281h48.371093c-6.09375-21.734375-26.066406-37.726563-49.722656-37.726563zm0 0" fill="#fecb5b"/><path d="m164.695312 140.179688c0-4.746094-.425781-9.386719-1.203124-13.910157h-31.171876c1.238282 4.425781 1.917969 9.089844 1.917969 13.910157 0 28.472656-23.164062 51.636718-51.640625 51.636718-3.53125 0-6.980468-.359375-10.3125-1.035156l2.277344 31.097656c2.644531.257813 5.324219.398438 8.035156.398438 45.269532 0 82.097656-36.828125 82.097656-82.097656zm0 0" fill="#fad38f"/><path d="m72.796875 131.128906c-2.882813 3.101563-4.34375 7.257813-4.035156 11.480469l3.523437 48.171875c3.332032.679688 6.78125 1.035156 10.3125 1.035156 28.472656 0 51.640625-23.164062 51.640625-51.636718 0-4.820313-.679687-9.480469-1.917969-13.910157h-48.371093c-4.230469 0-8.273438 1.757813-11.152344 4.859375zm0 0" fill="#fee09d"/><path d="m339.652344 39.039062-51.207032-36.242187c-4.230468-2.992187-9.699218-3.628906-14.507812-1.6875-4.808594 1.945313-8.296875 6.203125-9.253906 11.300781l-21.46875 113.859375-72.726563 385.730469h30.996094l72.726563-385.730469 16.007812-84.898437 31.835938 22.53125c6.867187 4.859375 16.371093 3.234375 21.230468-3.632813 4.859375-6.867187 3.234375-16.371093-3.632812-21.230469zm0 0" fill="#4692d4"/><path d="m170.488281 512h27.527344v-145.992188zm0 0" fill="#56b8ec"/></svg>