<?xml version="1.0" encoding="iso-8859-1"?>
<!-- Generator: Adobe Illustrator 19.0.0, SVG Export Plug-In . SVG Version: 6.00 Build 0)  -->
<svg version="1.1" id="Layer_1" xmlns="http://www.w3.org/2000/svg" xmlns:xlink="http://www.w3.org/1999/xlink" x="0px" y="0px"
	 viewBox="0 0 512 512" style="enable-background:new 0 0 512 512;" xml:space="preserve">
<path style="fill:#A86B38;" d="M511.633,459.806c-0.99-3.25-3.834-5.589-7.213-5.935c-48.79-4.996-81.033-21.775-95.836-49.869
	c-12.367-23.472-10.635-50.124-9.489-67.761c0.422-6.489,0.755-11.614,0.327-15.551c-2.363-21.782-20.432-35.705-27.466-40.349
	c-17.84-45.043-52.973-76.134-104.473-92.444c-41.428-13.12-82.727-12.881-100.353-12.78c-3.057,0.018-5.474,0.03-6.952-0.024
	c-12.08-0.461-17.418-10.903-18.798-14.171c-1.758-66.3-23.526-83.736-31.698-87.957L77.533,34.84
	c-2.417-2.867-6.435-3.794-9.864-2.278c-3.429,1.516-5.447,5.111-4.955,8.828l3.8,28.66c-9.335,3.408-20.342,10.973-31.052,18.337
	c-8.012,5.509-16.296,11.207-21.219,13.14c-6.356,2.495-13.985,9.353-14.237,27.855c-0.125,9.189,1.609,17.541,1.682,17.891
	c0.884,4.197,4.812,7.068,9.076,6.662c0.081-0.008,8.487-0.756,35.653-0.017c6.235,0.17,11.546,0.244,16.067,0.255
	c0.043,26.617,4.295,104.242,51.202,127.463c0.374,5.616,0.324,12.007-0.494,19.142l-0.541,4.704
	c-3.729,32.285-5.126,44.367,10.067,56.919c1.512,1.249,3.413,1.933,5.375,1.933h25.249c2.768,0,5.36-1.357,6.936-3.632
	c1.577-2.274,1.939-5.177,0.968-7.768l-11.159-29.785l5.311-15.595c20.307,23.94,38.781,30.273,48.206,31.894
	c0.762,1.817,1.558,3.622,2.425,5.399c24.736,50.658,28.122,76.197,25.903,81.277c-3.246,1.628-15.75,0.617-24.107-0.059
	c-12.227-0.988-26.086-2.108-39.333-0.305c-32.983,4.492-44.506,32.173-44.979,33.349c-1.049,2.602-0.737,5.554,0.832,7.878
	c1.569,2.325,4.191,3.719,6.995,3.719h149.873c2.45,0,4.779-1.065,6.381-2.917c1.604-1.853,2.323-4.31,1.97-6.734l-11.469-79.111
	c19.357,8.678,36.357,10.063,50.678,4.102c6.845-2.848,12.228-7.051,16.423-11.588c1.436,7.408,3.513,15.875,6.518,24.699
	c12.269,36.036,34.224,60.607,63.489,71.059c20.782,7.421,37.86,9.945,51.481,9.945c28.083,0,41.464-10.733,42.272-11.405
	C511.569,466.583,512.624,463.055,511.633,459.806z"/>
<g>
	<path style="fill:#8C4A14;" d="M8.059,153.746c0.869,0.201,1.778,0.277,2.705,0.188c0.019-0.001,0.476-0.042,1.484-0.095
		C10.798,153.805,9.396,153.773,8.059,153.746z"/>
	<path style="fill:#8C4A14;" d="M511.633,459.806c-0.99-3.25-3.834-5.589-7.213-5.935c-48.79-4.996-81.033-21.775-95.836-49.869
		c-12.367-23.472-10.635-50.124-9.489-67.761c0.422-6.489,0.755-11.614,0.327-15.551c-2.363-21.782-20.432-35.705-27.466-40.349
		c-17.84-45.043-52.973-76.134-104.473-92.444c-41.428-13.12-82.727-12.881-100.353-12.78c-3.057,0.018-5.474,0.03-6.952-0.024
		c-12.08-0.461-17.418-10.903-18.798-14.171c-1.758-66.3-23.526-83.736-31.698-87.957L77.533,34.84
		c-2.417-2.867-6.435-3.794-9.864-2.278c-3.429,1.516-5.447,5.111-4.955,8.828l2.013,15.182l13.826,16.395
		c8.172,4.221,29.94,21.657,31.698,87.957c1.38,3.268,6.717,13.709,18.798,14.171c1.477,0.055,3.895,0.042,6.952,0.024
		c17.626-0.102,58.925-0.341,100.353,12.78c51.499,16.31,86.633,47.401,104.473,92.444c7.034,4.644,25.103,18.567,27.466,40.349
		c0.428,3.937,0.095,9.063-0.327,15.551c-1.147,17.636-2.878,44.287,9.489,67.761c14.803,28.095,47.047,44.873,95.836,49.869
		c3.379,0.347,6.223,2.686,7.213,5.935c0.99,3.25-0.064,6.776-2.677,8.949c-0.648,0.538-9.385,7.538-27.29,10.295
		c5.84,0.772,11.225,1.108,16.149,1.108c28.083,0,41.464-10.733,42.272-11.405C511.569,466.583,512.624,463.055,511.633,459.806z"/>
	<path style="fill:#8C4A14;" d="M203.604,339.448c-16.012-44.269,4.558-109.201,62.949-96.912c0,0-76.68-30.824-100.137,76.559
		C182.219,333.67,195.92,338.127,203.604,339.448z"/>
</g>
<path d="M59.077,118.614c-5.353,0-9.708-4.347-9.708-9.691c0-5.344,4.355-9.692,9.708-9.692s9.708,4.348,9.708,9.692
	C68.784,114.266,64.43,118.614,59.077,118.614z"/>
<g>
</g>
<g>
</g>
<g>
</g>
<g>
</g>
<g>
</g>
<g>
</g>
<g>
</g>
<g>
</g>
<g>
</g>
<g>
</g>
<g>
</g>
<g>
</g>
<g>
</g>
<g>
</g>
<g>
</g>
</svg>
