<?xml version="1.0" encoding="iso-8859-1"?>
<!-- Generator: Adobe Illustrator 19.0.0, SVG Export Plug-In . SVG Version: 6.00 Build 0)  -->
<svg version="1.1" id="Layer_1" xmlns="http://www.w3.org/2000/svg" xmlns:xlink="http://www.w3.org/1999/xlink" x="0px" y="0px"
	 viewBox="0 0 512 512" style="enable-background:new 0 0 512 512;" xml:space="preserve">
<path style="fill:#E2B700;" d="M437.064,441.52c-0.018-0.307-0.056-0.604-0.083-0.907c-0.031-0.341-0.053-0.687-0.096-1.022
	c-0.049-0.389-0.118-0.766-0.182-1.146c-0.04-0.237-0.07-0.479-0.116-0.711c-0.085-0.437-0.192-0.859-0.299-1.282
	c-0.042-0.164-0.074-0.334-0.119-0.496c-0.128-0.466-0.278-0.917-0.432-1.365c-0.037-0.107-0.067-0.219-0.106-0.324
	c-0.175-0.482-0.372-0.946-0.578-1.403c-0.028-0.063-0.052-0.129-0.081-0.191c-0.225-0.484-0.473-0.95-0.735-1.404
	c-0.016-0.028-0.03-0.058-0.047-0.086c-0.278-0.475-0.578-0.929-0.897-1.367c-0.003-0.004-0.006-0.009-0.009-0.013
	c-2.598-3.557-6.573-5.821-12.052-6.034c0,0-0.001,0-0.002,0h-0.001c-0.28-0.011-0.545-0.041-0.833-0.041l2.614-64.742
	c9.752-30.291,26.061-87.963,33.912-119.46c-19.659,19.703-41.895,36.049-58.936,47.313c-7.518,4.969-16.032,7.719-24.655,8.26
	l9.358,128.629v0.041v5.726v22.941c0,2.395,0.937,4.567,2.455,6.187l0.001,0.001c0.411,0.439,0.864,0.836,1.355,1.187
	c0.003,0.002,0.005,0.004,0.008,0.006c0.236,0.168,0.48,0.324,0.732,0.469c0.014,0.009,0.028,0.018,0.042,0.026
	c0.238,0.135,0.483,0.258,0.733,0.372c0.031,0.014,0.06,0.03,0.09,0.043c0.234,0.103,0.475,0.193,0.72,0.277
	c0.049,0.017,0.096,0.037,0.145,0.053c0.23,0.074,0.465,0.134,0.703,0.19c0.066,0.015,0.13,0.036,0.196,0.051
	c0.236,0.05,0.477,0.084,0.72,0.115c0.069,0.009,0.136,0.024,0.206,0.031c0.312,0.033,0.629,0.051,0.95,0.051h28.651h9.244
	c2.674,0,5.014-1.407,6.337-3.517c0.721-1.151,1.145-2.507,1.145-3.965v-10.495c0-0.059-0.005-0.116-0.005-0.176
	C437.115,442.725,437.1,442.118,437.064,441.52z"/>
<path style="fill:#DDB303;" d="M437.063,441.519c-0.017-0.287-0.051-0.565-0.077-0.847c-0.032-0.361-0.057-0.726-0.101-1.081
	c-0.004-0.031-0.011-0.062-0.015-0.093c-0.046-0.346-0.105-0.685-0.163-1.025c-0.041-0.246-0.073-0.497-0.12-0.739
	c-0.085-0.435-0.192-0.855-0.298-1.277c-0.041-0.166-0.075-0.337-0.12-0.501c-0.045-0.164-0.102-0.32-0.152-0.48
	c-0.091-0.293-0.178-0.587-0.277-0.875c-0.033-0.098-0.062-0.199-0.096-0.296c-0.004-0.012-0.008-0.025-0.012-0.037
	c-0.174-0.481-0.371-0.945-0.577-1.401c-0.029-0.064-0.053-0.131-0.082-0.194c-0.225-0.484-0.473-0.95-0.735-1.404
	c-0.007-0.012-0.014-0.025-0.021-0.038c-0.009-0.017-0.017-0.033-0.027-0.05c-0.278-0.474-0.577-0.928-0.896-1.365l0,0
	c-0.003-0.004-0.006-0.009-0.009-0.013c-0.313-0.428-0.648-0.835-1.001-1.225c-0.017-0.019-0.032-0.039-0.05-0.058
	c-0.351-0.383-0.723-0.744-1.113-1.086c-0.021-0.018-0.04-0.038-0.06-0.056c-0.398-0.345-0.817-0.667-1.256-0.967
	c-0.014-0.01-0.028-0.021-0.042-0.031c-0.451-0.306-0.923-0.588-1.417-0.844c-0.003-0.002-0.006-0.004-0.009-0.005
	c-0.055-0.029-0.117-0.049-0.173-0.077c-0.45-0.225-0.911-0.438-1.397-0.621c-0.097-0.036-0.204-0.06-0.303-0.094
	c-0.456-0.161-0.917-0.315-1.403-0.438c-0.338-0.085-0.7-0.139-1.052-0.204c-0.265-0.049-0.518-0.115-0.792-0.154
	c-0.638-0.089-1.299-0.148-1.984-0.175h-0.001c-0.281-0.011-0.547-0.041-0.835-0.041l2.614-64.742
	c9.752-30.291,26.061-87.963,33.912-119.46c-0.152,0.152-0.307,0.3-0.46,0.452c-0.603,0.601-1.211,1.194-1.818,1.789
	c-0.613,0.601-1.224,1.204-1.841,1.798c-0.632,0.608-1.268,1.207-1.904,1.808c-0.601,0.568-1.2,1.14-1.804,1.701
	c-0.66,0.614-1.324,1.218-1.987,1.824c-0.587,0.536-1.172,1.077-1.76,1.607c-0.68,0.613-1.364,1.214-2.046,1.819
	c-0.578,0.512-1.155,1.029-1.734,1.535c-0.69,0.603-1.381,1.194-2.073,1.788c-0.574,0.494-1.148,0.993-1.723,1.481
	c-0.678,0.576-1.356,1.138-2.035,1.706c-0.591,0.494-1.182,0.995-1.773,1.483c-0.616,0.509-1.23,1.004-1.846,1.505
	c-0.654,0.533-1.308,1.071-1.96,1.595c-0.428,0.344-0.853,0.676-1.279,1.016c-7.041,5.611-13.961,10.732-20.442,15.282
	c-6.887,33.107-14.508,68.559-17.957,79.269l-2.614,64.742l0,0c11.557,0,16.725,8.859,16.725,19.787v10.495
	c0,4.132-3.35,7.482-7.482,7.482h23.286h9.244c0.304,0,0.603-0.023,0.897-0.059c0.085-0.01,0.169-0.025,0.253-0.038
	c0.113-0.018,0.223-0.044,0.334-0.067c0.102-0.02,0.206-0.036,0.306-0.061c0.081-0.02,0.161-0.039,0.241-0.062
	c0.252-0.071,0.5-0.153,0.74-0.25c0.024-0.01,0.05-0.017,0.074-0.027c0.281-0.116,0.552-0.249,0.815-0.397
	c0.018-0.01,0.035-0.021,0.052-0.032c0.241-0.139,0.474-0.291,0.697-0.455c0.03-0.022,0.059-0.044,0.089-0.066
	c0.326-0.247,0.623-0.527,0.905-0.822c0.063-0.066,0.125-0.133,0.186-0.201c0.272-0.307,0.528-0.63,0.748-0.979l0,0
	c0.358-0.571,0.641-1.193,0.837-1.852c0.006-0.019,0.01-0.039,0.015-0.059c0.08-0.279,0.14-0.566,0.188-0.857
	c0.012-0.074,0.024-0.149,0.034-0.224c0.031-0.238,0.044-0.481,0.052-0.726c0.003-0.081,0.017-0.159,0.017-0.24v-0.006v-10.495
	c0-0.01-0.001-0.02-0.001-0.029C437.122,442.821,437.103,442.165,437.063,441.519z"/>
<path style="fill:#FEDA2E;" d="M421.232,423.767h-38.541v28.667c0,5.002,4.055,9.057,9.057,9.057h28.65h9.244
	c4.132,0,7.482-3.35,7.482-7.482v-10.495C437.124,432.857,432.191,424.193,421.232,423.767z"/>
<path style="fill:#FDBF00;" d="M436.984,440.65c-0.032-0.355-0.056-0.713-0.099-1.061c-0.048-0.379-0.116-0.747-0.178-1.118
	c-0.041-0.246-0.073-0.496-0.12-0.738c-0.085-0.431-0.19-0.848-0.295-1.266c-0.042-0.169-0.076-0.344-0.122-0.511
	c-0.128-0.464-0.276-0.913-0.43-1.358c-0.038-0.109-0.069-0.223-0.108-0.33c-0.175-0.48-0.37-0.943-0.576-1.398
	c-0.029-0.064-0.053-0.132-0.083-0.196c-0.225-0.483-0.471-0.949-0.733-1.401c-0.017-0.029-0.031-0.06-0.048-0.089
	c-0.278-0.473-0.577-0.929-0.896-1.365c-0.003-0.005-0.006-0.01-0.01-0.015c-2.603-3.55-6.575-5.822-12.053-6.035h-32.529
	c10.959,0.426,15.891,9.09,15.891,19.746v10.495c0,4.132-3.35,7.482-7.482,7.482h23.286h9.244c4.132,0,7.482-3.35,7.482-7.482
	v-10.495c0-0.673-0.02-1.338-0.06-1.993C437.046,441.225,437.01,440.94,436.984,440.65z"/>
<path style="fill:#E2B700;" d="M118.992,386.944l18.181-28.113c0,0,17.523-21.147,32.577-40.084
	c-24.074-7.206-50.125-17.125-50.125-17.125c-8.627,11.226-14.694,17.704-22.5,27.25c0,0-10.881,28.993-14.108,36.145
	c-1.09,2.415-2.5,4.651-4.052,6.799c-2.3,3.182-3.562,7.03-3.562,11.009v35.304v28.707c0,5.002,4.055,9.057,9.057,9.057h28.65h9.243
	c4.132,0,7.482-3.35,7.482-7.482v-10.495c0-10.928-5.169-19.787-16.725-19.787V400.6
	C113.111,395.433,115.238,390.494,118.992,386.944z"/>
<path style="fill:#DDB303;" d="M113.111,418.129L113.111,418.129V400.6c0-5.167,2.127-10.106,5.882-13.656l18.181-28.113
	c0,0,17.523-21.147,32.577-40.084c-6.282-1.88-12.694-3.945-18.747-5.97c-24.546,38.469-64.081,74.167-64.081,74.167
	c-3.754,3.55-5.882,8.49-5.882,13.656v17.528c11.557,0,16.725,8.859,16.725,19.787v10.495c0,4.132-3.35,7.482-7.482,7.482h22.827
	h9.243c1.291,0,2.506-0.327,3.566-0.903c2.332-1.267,3.916-3.738,3.916-6.579v-10.495
	C129.836,426.988,124.667,418.129,113.111,418.129z"/>
<path style="fill:#FEDA2E;" d="M75.404,418.118v0.011v28.707c0,5.002,4.055,9.057,9.057,9.057h28.65h9.244
	c4.132,0,7.482-3.35,7.482-7.482v-10.495c0-10.928-5.169-19.787-16.726-19.787v-0.011L75.404,418.118L75.404,418.118z"/>
<g>
	<path style="fill:#FDBF00;" d="M113.111,418.129v-0.011H81.04v0.011c11.557,0,16.726,8.859,16.726,19.787v10.495
		c0,4.132-3.35,7.482-7.482,7.482h22.827h9.244c4.132,0,7.482-3.35,7.482-7.482v-10.495
		C129.836,426.988,124.667,418.129,113.111,418.129z"/>
	<path style="fill:#FDBF00;" d="M360.064,423.726L360.064,423.726l2.614-64.742c5.855-18.186,17.031-53.59,20.812-65.579
		c-13.782,3.772-28.803,1.588-41.142-6.568c-30.674-20.277-78.195-56.999-97.183-100.173c-1.922-4.369-3.183-8.936-3.808-13.562
		l-132.025-0.001c-38.615,0-69.918,31.303-69.918,69.917v26.372l-6.238,72.297c-0.225,2.609-6.219,16.177-9.446,23.33
		c-1.089,2.415-2.5,4.651-4.052,6.799c-2.3,3.182-3.562,7.03-3.562,11.009v35.304v28.707c0,5.002,4.055,9.057,9.057,9.057h28.65
		h9.244c4.132,0,7.482-3.35,7.482-7.482v-10.495c0-10.928-5.169-19.787-16.725-19.787V400.6c0-5.167,2.127-10.106,5.882-13.656
		l18.181-28.113c0,0,22.839-27.167,40.801-50.542h8.018c0,0,88.23,38.361,160.82,27.998c15.112-2.158,28.878,8.977,30.033,24.198
		l4.799,63.242v28.707c0,5.002,4.055,9.057,9.057,9.057h28.65h9.244c4.132,0,7.482-3.35,7.482-7.482v-10.495
		C376.789,432.585,371.621,423.726,360.064,423.726z"/>
</g>
<g>
	<path style="fill:#EDAF00;" d="M360.064,423.726L360.064,423.726l2.614-64.742c6.26-19.443,49.861-70.51,62.869-91.916
		c-9.816,7.649-19.3,14.31-27.559,19.77c-13.894,9.185-31.19,10.799-46.287,4.857c-8.097,25.898-17.113,54.313-21.29,67.289
		l-2.614,64.742l0,0c11.557,0,16.725,8.859,16.725,19.787v10.495c0,4.132-3.35,7.482-7.482,7.482h23.023h9.244
		c4.132,0,7.482-3.35,7.482-7.482v-10.495C376.789,432.585,371.621,423.726,360.064,423.726z"/>
	<path style="fill:#EDAF00;" d="M59.705,386.944l18.181-28.113c0,0,22.839-27.167,40.801-50.542l0,0
		c-20.081,0-39.086,9.081-51.713,24.696c-11.656,14.414-21.267,25.847-21.267,25.847l-18.181,28.113
		c-3.754,3.55-5.882,8.489-5.882,13.656v17.528c11.557,0,16.726,8.859,16.726,19.787v10.495c0,4.132-3.35,7.482-7.482,7.482h22.936
		h9.244c4.132,0,7.482-3.35,7.482-7.482v-10.495c0-10.928-5.169-19.787-16.725-19.787v-17.528
		C53.823,395.433,55.951,390.494,59.705,386.944z"/>
</g>
<path style="fill:#FDBF00;" d="M0.049,297.468c0.674-12.3,8.414-21.877,17.289-21.391s15.522,10.851,14.848,23.151
	c-0.674,12.3-8.675,38.264-17.549,37.778C5.762,336.52-0.625,309.768,0.049,297.468z"/>
<path style="fill:#FEDA2E;" d="M25.173,455.893h28.65h9.244c4.132,0,7.482-3.35,7.482-7.482v-10.495
	c0-10.928-5.169-19.787-16.726-19.787H16.116v28.707C16.116,451.838,20.171,455.893,25.173,455.893z"/>
<path style="fill:#FDBF00;" d="M53.823,418.129H21.644c11.557,0,16.726,8.859,16.726,19.787v10.495c0,4.132-3.35,7.482-7.482,7.482
	h22.936h9.244c4.132,0,7.482-3.35,7.482-7.482v-10.495C70.549,426.988,65.38,418.129,53.823,418.129z"/>
<path style="fill:#FEDA2E;" d="M322.357,452.434c0,5.002,4.055,9.057,9.057,9.057h28.65h9.244c4.132,0,7.482-3.35,7.482-7.482
	v-10.495c0-10.654-4.931-19.318-15.889-19.746h-38.544L322.357,452.434L322.357,452.434z"/>
<path style="fill:#FDBF00;" d="M376.65,440.654c-0.032-0.356-0.056-0.715-0.1-1.064c-0.048-0.379-0.115-0.747-0.178-1.118
	c-0.041-0.246-0.073-0.498-0.12-0.74c-0.085-0.431-0.19-0.85-0.295-1.268c-0.042-0.168-0.076-0.342-0.122-0.508
	c-0.128-0.464-0.276-0.914-0.43-1.359c-0.037-0.109-0.068-0.222-0.107-0.329c-0.175-0.48-0.37-0.945-0.577-1.401
	c-0.028-0.063-0.053-0.13-0.082-0.192c-0.226-0.484-0.472-0.951-0.734-1.404c-0.016-0.028-0.03-0.058-0.047-0.087
	c-0.278-0.473-0.576-0.928-0.895-1.364c-0.004-0.005-0.007-0.011-0.011-0.016c-2.602-3.549-6.573-5.82-12.048-6.035
	c-0.002,0-0.004,0-0.006,0h-32.267c10.959,0.426,15.891,9.09,15.891,19.746v10.495c0,4.132-3.35,7.482-7.482,7.482h23.023h9.244
	c4.132,0,7.482-3.35,7.482-7.482v-10.495c0-0.673-0.02-1.338-0.06-1.994C376.712,441.226,376.676,440.943,376.65,440.654z"/>
<path style="fill:#FBB03B;" d="M43.251,183.984c-18.187,0-32.983,14.796-32.983,32.983v60.915c2.18-1.285,4.579-1.941,7.069-1.805
	c1.495,0.082,2.92,0.466,4.264,1.07v-60.18c0-11.938,9.712-21.65,21.65-21.65h14.984c4.044-4.33,8.631-8.14,13.654-11.333H43.251z"
	/>
<path style="fill:#FE8901;" d="M476.432,96.256c-8.228-9.257-17.022-17.859-25.168-25.271
	c-18.311-16.661-43.399-23.722-67.718-19.086l0,0c-8.839,1.685-17.917,1.685-26.757,0l0,0c-24.319-4.636-49.406,2.425-67.718,19.086
	c-8.146,7.412-16.94,16.014-25.168,25.271c-11.435,12.864-21.59,29.367-28.689,42.212c-8.338,15.088-9.131,33.208-2.191,48.988
	c20.832,47.367,72.968,87.656,106.622,109.903c18.512,12.237,42.532,12.237,61.044,0c33.654-22.246,85.79-62.536,106.622-109.903
	c6.94-15.78,6.147-33.901-2.191-48.988C498.022,125.623,487.867,109.12,476.432,96.256z"/>
<path style="fill:#FECE00;" d="M425.726,126.423l-5.619-4.573c-3.4-2.767-7.073-5.13-10.946-7.063
	c-13.188-6.583-29.242-1.652-36.815,10.993l0,0c-0.986,1.646-3.37,1.646-4.356,0c-7.573-12.646-23.628-17.577-36.815-10.993
	c-3.872,1.933-7.546,4.296-10.946,7.063l-5.619,4.573c-13.841,11.263-21.875,28.16-21.875,46.005v15.233
	c0,10.098,4.32,19.618,11.604,26.612c4.855,4.663,8.195,10.679,9.584,17.265c1.752,8.305,5.449,15.957,10.714,22.308
	c0.124,4.371,1.603,8.751,3.647,12.769c2.49,4.896,6.583,8.432,11.318,10.351c-0.001,0-0.002-0.001-0.002-0.001
	c4.03,8.485,16.191,14.65,30.568,14.65c14.409,0,26.588-6.194,30.592-14.707c4.779-1.953,8.903-5.545,11.376-10.458
	c2-3.972,3.437-8.291,3.56-12.6c5.267-6.352,8.965-14.005,10.717-22.312c1.389-6.586,4.729-12.602,9.584-17.265
	c7.283-6.995,11.604-16.514,11.604-26.612v-15.234C447.601,154.582,439.567,137.686,425.726,126.423z"/>
<path style="fill:#E57501;" d="M505.121,138.468c-7.099-12.845-17.254-29.348-28.689-42.212
	c-8.228-9.257-17.022-17.859-25.168-25.271c-18.311-16.661-43.399-23.722-67.718-19.087l0,0c-0.542,0.104-1.087,0.181-1.631,0.271
	c13.581,2.832,26.358,9.231,36.891,18.815c8.146,7.412,16.94,16.014,25.168,25.271c11.435,12.864,21.59,29.367,28.688,42.212
	c8.338,15.088,9.131,33.208,2.191,48.988c-20.832,47.367-72.968,87.657-106.622,109.903c-4.492,2.969-9.31,5.212-14.293,6.74
	c15.553,4.77,32.731,2.528,46.751-6.74c33.654-22.246,85.79-62.536,106.622-109.903
	C514.251,171.676,513.459,153.555,505.121,138.468z"/>
<path style="fill:#FEF3CA;" d="M411.089,240.995c-15.355-17.754-40.922,1.919-40.922,1.919s-25.567-19.674-40.922-1.919
	c-6.911,7.991-5.074,17.537-0.963,25.619c2.49,4.896,6.583,8.432,11.318,10.351c-0.001,0-0.002-0.001-0.002-0.001
	c4.03,8.485,16.191,14.65,30.568,14.65c14.409,0,26.588-6.194,30.592-14.707c4.779-1.953,8.903-5.545,11.376-10.458
	C416.187,258.403,417.953,248.932,411.089,240.995z"/>
<path style="fill:#FDBF00;" d="M403.012,201.609c-7.063-6.797-14.769-19.558-20.94-31.142c-5.066-9.508-18.743-9.508-23.809,0
	c-6.172,11.584-13.877,24.345-20.94,31.142c-15,14.437-13.748,49.773-13.699,51.015c0.326,0.416,0.673,0.815,1.012,1.22
	c-0.125-4.42,1.135-8.831,4.61-12.849c15.355-17.754,40.922,1.919,40.922,1.919s25.567-19.674,40.922-1.919
	c3.476,4.019,4.733,8.431,4.607,12.852c0.34-0.406,0.688-0.807,1.015-1.224C416.76,251.382,418.012,216.046,403.012,201.609z"/>
<path style="fill:#F2B200;" d="M425.726,126.422l-5.62-4.573c-3.4-2.767-7.073-5.13-10.946-7.063
	c-9.351-4.668-20.139-3.542-28.327,2.013c2.535,1.497,4.976,3.172,7.283,5.05l5.619,4.573c13.841,11.264,21.875,28.16,21.875,46.005
	v15.233c0,10.098-4.32,19.617-11.604,26.612c-4.855,4.663-8.194,10.679-9.584,17.266c-0.147,0.695-0.321,1.381-0.495,2.066
	c5.977-0.219,12.118,1.562,17.16,7.391c3.476,4.019,4.733,8.432,4.607,12.854c5.267-6.352,8.965-14.005,10.717-22.311
	c1.389-6.586,4.729-12.603,9.584-17.266c7.283-6.995,11.604-16.514,11.604-26.612v-15.233
	C447.601,154.583,439.567,137.686,425.726,126.422z"/>
<path style="fill:#EAA803;" d="M414.463,246.561c0.092,0.237,0.2,0.472,0.281,0.71c0.026,0.078,0.042,0.157,0.068,0.236
	c0.325,1.003,0.564,2.015,0.707,3.034c0.005,0.039,0.006,0.077,0.011,0.116c0.142,1.06,0.197,2.125,0.167,3.191
	c0.006-0.008,0.013-0.016,0.02-0.023c0.346-0.417,0.667-0.854,0.999-1.283c0.064-1.733,0.823-27.194-8.161-43.498
	c-1.349,1.86-2.864,3.615-4.546,5.229c-4.855,4.663-8.194,10.679-9.584,17.266c-0.147,0.695-0.321,1.381-0.495,2.066
	c0.001,0,0.002,0,0.003,0c1.074-0.039,2.152-0.012,3.229,0.091c0.107,0.01,0.214,0.022,0.321,0.033
	c0.555,0.061,1.108,0.144,1.66,0.247c0.147,0.028,0.295,0.051,0.442,0.082c0.268,0.056,0.534,0.121,0.801,0.189
	c0.234,0.059,0.467,0.124,0.7,0.191c0.26,0.075,0.519,0.15,0.777,0.236c0.388,0.129,0.775,0.273,1.159,0.428
	c0.191,0.077,0.382,0.161,0.572,0.245c0.344,0.152,0.685,0.315,1.025,0.489c0.128,0.066,0.256,0.124,0.383,0.193
	c0.448,0.242,0.89,0.511,1.33,0.795c0.139,0.09,0.276,0.183,0.414,0.277c0.415,0.283,0.827,0.581,1.234,0.904
	c0.048,0.038,0.098,0.072,0.146,0.111c0.45,0.364,0.891,0.761,1.328,1.176c0.11,0.105,0.22,0.212,0.33,0.321
	c0.442,0.437,0.879,0.89,1.305,1.384c0.434,0.502,0.834,1.011,1.201,1.525C413.229,243.835,413.929,245.188,414.463,246.561z"/>
<path style="fill:#FDEA96;" d="M413.188,243.903c-0.328,0.76-0.681,1.511-1.052,2.25c-5.41,10.744-18.702,15.197-29.508,9.911
	l-7.384-3.612c-3.106-1.52-5.076-4.676-5.076-8.134V244.3c0,3.469-1.976,6.635-5.092,8.16l-7.342,3.592
	c-10.831,5.298-23.985,1.013-29.45-9.734c-0.403-0.792-0.783-1.598-1.136-2.415c-4.34,7.33-2.487,15.589,1.136,22.712
	c5.466,10.747,18.62,15.032,29.45,9.734l7.342-3.592c3.116-1.524,5.092-4.691,5.092-8.16v0.018c0,3.458,1.969,6.614,5.076,8.134
	l7.384,3.612c10.806,5.286,24.098,0.833,29.508-9.911C415.703,259.365,417.495,251.176,413.188,243.903z"/>
<path style="fill:#513622;" d="M396.159,225.95L396.159,225.95c-3.549-6.493-11.71-8.85-18.174-5.248l-0.014,0.008
	c-4.851,2.703-10.755,2.703-15.605,0l-0.014-0.008c-6.464-3.602-14.625-1.245-18.174,5.248l0,0
	c-3.596,6.578-1.058,14.827,5.614,18.246l0.034,0.017c3.377,1.731,5.907,4.677,7.382,8.173c1.911,4.528,6.392,7.707,11.616,7.707
	h1.292h0.108h1.292c5.224,0,9.705-3.178,11.616-7.707c1.475-3.496,4.005-6.442,7.382-8.173l0.034-0.017
	C397.216,240.777,399.754,232.528,396.159,225.95z"/>
<path style="fill:#3A2516;" d="M396.159,225.95L396.159,225.95c-3.549-6.493-11.71-8.85-18.174-5.248l-0.014,0.008
	c-0.797,0.444-1.624,0.808-2.468,1.106c1.404,1.088,2.613,2.475,3.519,4.134l0,0c3.596,6.578,1.058,14.827-5.614,18.246
	l-0.034,0.017c-2.987,1.531-2.479,11.239-3.342,15.88h0.082h0.108h1.292c5.224,0,9.705-3.178,11.616-7.707
	c1.475-3.496,4.005-6.442,7.382-8.173l0.034-0.017C397.216,240.777,399.754,232.528,396.159,225.95z"/>
<g>
	<path style="fill:#FECE00;" d="M431.795,122.227l-6.142-4.998c-0.852-0.693-1.72-1.362-2.603-2.007
		c-2.486-1.816-2.011-5.672,0.87-6.759c10.2-3.847,23.282-6.111,32.096,2.018c15.721,14.5,12.656,32.54,4.704,46.63
		c-1.714,3.037-6.239,2.384-7.121-0.99C450.152,142.928,442.589,131.01,431.795,122.227z"/>
	<path style="fill:#FECE00;" d="M308.539,122.227l6.142-4.998c0.852-0.693,1.72-1.362,2.603-2.007
		c2.486-1.816,2.011-5.672-0.87-6.759c-10.2-3.847-23.282-6.111-32.096,2.018c-15.721,14.5-12.656,32.54-4.704,46.63
		c1.714,3.037,6.239,2.384,7.121-0.99C290.183,142.928,297.746,131.01,308.539,122.227z"/>
</g>
<g>
	<path style="fill:#513622;" d="M329.977,194.949c4.286,0,7.76-3.474,7.76-7.76s-3.474-7.76-7.76-7.76h-4.102
		c-4.286,0-7.76,3.474-7.76,7.76s3.474,7.76,7.76,7.76H329.977z"/>
	<path style="fill:#513622;" d="M413.564,179.428h-4.102c-4.286,0-7.76,3.474-7.76,7.76s3.474,7.76,7.76,7.76h4.102
		c4.286,0,7.76-3.474,7.76-7.76S417.85,179.428,413.564,179.428z"/>
</g>
<g>
</g>
<g>
</g>
<g>
</g>
<g>
</g>
<g>
</g>
<g>
</g>
<g>
</g>
<g>
</g>
<g>
</g>
<g>
</g>
<g>
</g>
<g>
</g>
<g>
</g>
<g>
</g>
<g>
</g>
</svg>
