<?xml version="1.0" encoding="iso-8859-1"?>
<!-- Generator: Adobe Illustrator 19.0.0, SVG Export Plug-In . SVG Version: 6.00 Build 0)  -->
<svg version="1.1" id="Capa_1" xmlns="http://www.w3.org/2000/svg" xmlns:xlink="http://www.w3.org/1999/xlink" x="0px" y="0px"
	 viewBox="0 0 512 512" style="enable-background:new 0 0 512 512;" xml:space="preserve">
<path style="fill:#824641;" d="M333.566,464.169c-11.823,0-23.476-4.032-32.903-11.891c-3.504-2.919-3.976-8.125-1.056-11.629
	c2.919-3.5,8.121-3.976,11.629-1.056c10.956,9.133,26.379,10.625,39.29,3.823c14.145-7.452,21.242-22.621,19.46-41.613
	c-3.145-33.548,1.169-61.726,6.843-74.774c10.698-24.601,26.968-37.226,40.04-47.367c7.117-5.524,13.262-10.29,17.504-16
	c5.677-7.633,13.327-22.315,0.79-34.855c-3.734-3.73-9.52-5.089-14.746-3.468c-2.44,0.758-6.681,2.831-7.665,8.173
	c-1.371,7.286,2.214,9.762,5.46,10.56c4.371,1.073,7.157,5.472,6.161,9.859c-0.992,4.387-5.246,7.185-9.645,6.286
	c-9.21-1.907-21.657-11.395-18.214-29.726c1.835-9.96,8.935-17.794,18.996-20.923c11.02-3.44,23.31-0.456,31.331,7.56
	c15.339,15.339,15.633,36.415,0.79,56.387c-5.589,7.52-12.899,13.19-20.637,19.194c-12.786,9.919-26.008,20.177-35.02,40.907
	c-3.355,7.714-8.831,31.577-5.544,66.645c2.399,25.605-8.145,47.198-28.21,57.766C350.4,462.145,341.941,464.169,333.566,464.169z"
	/>
<path style="fill:#965A50;" d="M90.977,445.935c-0.317-74.244,30.393-103.386,46.008-113.212c4.403-2.771,10.205-0.843,12.096,4.003
	l7.706,19.746l26.839,72.947h132.129l26.839-72.947l7.706-19.746c1.891-4.846,7.694-6.774,12.096-4.003
	c15.615,9.826,46.325,38.968,46.008,113.212h37.408c3.594-162.007-97.025-198.194-97.025-198.194H150.594
	c0,0-100.619,36.187-97.025,198.194H90.977z"/>
<path style="fill:#EBC9A0;" d="M249.691,478.968l66.328-103.177c-12.238-26.947-37.308-45.468-66.328-45.468
	s-54.09,18.522-66.328,45.468L249.691,478.968z"/>
<path style="fill:#824641;" d="M150.594,247.742c0,0-10.626,3.833-24.829,14.476c25.017,35.739,71.132,59.846,123.926,59.846
	s98.909-24.107,123.926-59.846c-14.203-10.643-24.83-14.476-24.83-14.476L150.594,247.742L150.594,247.742z"/>
<circle style="fill:#965A50;" cx="134.08" cy="132.13" r="41.29"/>
<circle style="fill:#EBC9A0;" cx="134.08" cy="132.13" r="24.774"/>
<circle style="fill:#965A50;" cx="365.3" cy="132.13" r="41.29"/>
<circle style="fill:#EBC9A0;" cx="365.3" cy="132.13" r="24.774"/>
<path style="fill:#AF6E5A;" d="M364.754,156.505c-3.869-6.676-6.503-13.972-7.578-21.542l-1.975-18.551
	c-2.035-19.113-8.357-37.777-19.892-53.153c-11.474-15.294-26.953-27.414-44.879-34.809V10.185L264.968,20.37L259.876,0
	c-13.431,4.477-24.89,13.873-33.52,23.001c-47.823,10.657-83.603,53.268-83.607,104.302c-0.001,9.999-2.632,19.901-7.717,28.511
	c-8.096,13.709-12.653,29.083-12.653,45.339c0,57.656,56.999,104.396,127.312,104.396s127.312-46.739,127.312-104.396
	C377.003,185.169,372.597,170.039,364.754,156.505z"/>
<path style="fill:#965A50;" d="M191.884,217.256c0-18.893,4.557-36.759,12.653-52.692c5.085-10.006,7.717-21.514,7.717-33.134
	c0-81.882,52.714-111.06,52.714-111.06L259.876,0c-13.431,4.477-24.89,13.873-33.52,23.001
	c-47.823,10.657-83.603,53.268-83.607,104.302c-0.001,9.999-2.632,19.901-7.717,28.511c-8.096,13.71-12.653,29.083-12.653,45.339
	c0,52.309,46.968,95.506,108.178,103.091C206.737,282.197,191.884,251.4,191.884,217.256z"/>
<path style="fill:#FAEBC8;" d="M332.271,148.645v-6.781c0-16.941-12.111-32.236-28.93-34.262
	c-12.44-1.499-23.695,3.927-30.464,12.928c-5.488,7.298-13.722,11.643-22.853,11.599c-0.111-0.001-0.222-0.001-0.333-0.001
	s-0.222,0-0.333,0.001c-9.132,0.044-17.366-4.301-22.854-11.599c-6.769-9.001-18.023-14.426-30.463-12.928
	c-16.82,2.026-28.931,17.321-28.931,34.262v6.781c0,8.175,2.976,15.648,7.899,21.41c3.742,4.38,4.906,10.26,3.296,15.792
	c-2.258,7.762-3.293,16.041-2.828,24.639c2.072,38.307,34.517,69.601,72.874,70.276c41.66,0.733,75.662-32.818,75.662-74.311
	c0-7.199-1.046-14.146-2.971-20.721c-1.605-5.484-0.399-11.316,3.316-15.658C329.29,164.308,332.271,156.829,332.271,148.645z"/>
<path style="fill:#F5DCB4;" d="M191.884,217.256c0-18.893,4.557-36.759,12.653-52.692c5.085-10.006,7.717-21.514,7.717-33.134
	c0-7.549,0.574-14.504,1.387-21.175c-5.275-2.373-11.28-3.414-17.6-2.653c-16.82,2.026-28.931,17.321-28.931,34.262v6.781
	c0,8.175,2.976,15.648,7.899,21.41c3.742,4.38,4.905,10.261,3.296,15.792c-2.258,7.762-3.293,16.04-2.828,24.639
	c1.105,20.435,10.905,38.818,25.583,51.678C195.217,248.265,191.884,233.15,191.884,217.256z"/>
<g>
	<path style="fill:#4B3F4E;" d="M233.175,198.194c-1.077,0-2.149-0.25-3.141-0.661c-1.073-0.415-1.899-0.992-2.722-1.734
		c-1.488-1.569-2.395-3.718-2.395-5.863c0-2.149,0.907-4.294,2.395-5.863c0.823-0.746,1.649-1.323,2.722-1.738
		c3.056-1.319,6.69-0.577,9.004,1.738c0.331,0.411,0.661,0.823,0.988,1.238c0.331,0.496,0.581,0.992,0.746,1.484
		c0.246,0.496,0.411,0.992,0.496,1.488c0.081,0.577,0.165,1.157,0.165,1.653c0,2.145-0.911,4.294-2.395,5.863
		C237.469,197.282,235.32,198.194,233.175,198.194z"/>
	<path style="fill:#4B3F4E;" d="M266.207,198.194c-1.077,0-2.149-0.25-3.141-0.661c-0.988-0.415-1.899-0.992-2.722-1.734
		c-1.488-1.569-2.395-3.718-2.395-5.863c0-2.149,0.907-4.294,2.395-5.863c0.823-0.746,1.734-1.323,2.722-1.738
		c1.984-0.907,4.294-0.907,6.278,0c0.992,0.415,1.899,0.992,2.726,1.738c0.331,0.411,0.661,0.823,0.988,1.238
		c0.331,0.496,0.581,0.992,0.746,1.484c0.246,0.496,0.411,0.992,0.496,1.488c0.081,0.577,0.165,1.157,0.165,1.653
		c0,2.145-0.911,4.294-2.395,5.863c-0.827,0.742-1.734,1.319-2.726,1.734C268.352,197.944,267.279,198.194,266.207,198.194z"/>
	<path style="fill:#4B3F4E;" d="M212.684,222.968c-5.486,0-9.515,5.275-7.994,10.546c5.194,18.003,23.373,31.295,45.001,31.295
		s39.807-13.292,45.001-31.295c1.521-5.271-2.508-10.546-7.994-10.546L212.684,222.968L212.684,222.968z"/>
	<path style="fill:#4B3F4E;" d="M200.142,165.161L200.142,165.161c-9.122,0-16.516-7.395-16.516-16.516v-8.258
		c0-9.122,7.395-16.516,16.516-16.516l0,0c9.122,0,16.516,7.395,16.516,16.516v8.258
		C216.658,157.767,209.264,165.161,200.142,165.161z"/>
</g>
<path style="fill:#AF6E5A;" d="M197.135,367.286c-7.114-15.117-26.004-20.375-39.905-11.107c-12.72,8.48-16.015,25.742-7.314,38.312
	l58.484,84.477h41.29L197.135,367.286z"/>
<path style="fill:#F5DCB4;" d="M317.052,478.968H182.33c-17.526,0-31.736,14.209-31.736,31.736V512h198.194v-1.296
	C348.787,493.176,334.579,478.968,317.052,478.968z"/>
<path style="fill:#AF6E5A;" d="M342.152,356.178c-13.901-9.268-32.791-4.01-39.905,11.107l-52.556,111.682h41.29l58.484-84.477
	C358.168,381.921,354.872,364.658,342.152,356.178z"/>
<circle style="fill:#FFFFFF;" cx="200.14" cy="140.39" r="8.258"/>
<path style="fill:#4B3F4E;" d="M299.239,165.161L299.239,165.161c-9.122,0-16.516-7.395-16.516-16.516v-8.258
	c0-9.122,7.395-16.516,16.516-16.516l0,0c9.122,0,16.516,7.395,16.516,16.516v8.258
	C315.755,157.767,308.361,165.161,299.239,165.161z"/>
<circle style="fill:#FFFFFF;" cx="299.24" cy="140.39" r="8.258"/>
<path style="fill:#F5DCB4;" d="M55.829,482.258c1.821,16.855,15.95,29.741,32.903,29.741L109.304,512
	c4.561,0,8.258-3.698,8.258-8.258v-8.258c0-9.122-7.394-16.516-16.516-16.516h-8.258c-1.339-11.92-1.94-22.875-1.991-33.032H53.443
	C53.702,457.414,54.45,469.483,55.829,482.258z"/>
<rect x="241.43" y="478.97" style="fill:#EBC9A0;" width="16.516" height="33.03"/>
<path style="fill:#F5DCB4;" d="M443.552,482.258c-1.821,16.855-15.95,29.741-32.903,29.741L390.078,512
	c-4.561,0-8.258-3.698-8.258-8.258v-8.258c0-9.122,7.394-16.516,16.516-16.516h8.258c1.339-11.92,1.94-22.875,1.991-33.032h37.353
	C445.679,457.414,444.932,469.483,443.552,482.258z"/>
<g>
</g>
<g>
</g>
<g>
</g>
<g>
</g>
<g>
</g>
<g>
</g>
<g>
</g>
<g>
</g>
<g>
</g>
<g>
</g>
<g>
</g>
<g>
</g>
<g>
</g>
<g>
</g>
<g>
</g>
</svg>
