<svg height="512" viewBox="0 0 128 128" width="512" xmlns="http://www.w3.org/2000/svg"><g><g fill="#f2e7cb"><path d="m29.7 13.49h-8.232a3.5 3.5 0 0 0 0 7.005h8.232z"/><path d="m66.107 13.49h55.586v7.005h-55.586z"/><path d="m29.7 29.49h-8.232a3.5 3.5 0 0 0 0 7h8.232z"/><path d="m66.107 29.49h55.586v7.005h-55.586z"/></g><path d="m29.7 60v-47.963a5.73 5.73 0 0 1 5.73-5.731h24.947a5.73 5.73 0 0 1 5.73 5.731v47.963z" fill="#ffde3e"/><path d="m36.701 6.31h3.5v53.69h-3.5z" fill="#efcb37"/><path d="m45.931 6.31h3.5v53.69h-3.5z" fill="#efcb37"/><path d="m55.151 6.31h3.5v53.69h-3.5z" fill="#efcb37"/><path d="m36.803 110.886h54.393v10.808h-54.393z" fill="#ef3829"/><path d="m6.306 60a57.678 57.678 0 0 0 30.5 50.886h54.394a57.678 57.678 0 0 0 30.494-50.886z" fill="#ef3829"/><path d="m86.705 101.984a1.75 1.75 0 0 1 -.863-3.274 44.522 44.522 0 0 0 17.387-17.81 1.75 1.75 0 0 1 3.088 1.649 48.026 48.026 0 0 1 -18.752 19.21 1.741 1.741 0 0 1 -.86.225z" fill="#d12626"/><path d="m108.005 75.828a1.75 1.75 0 0 1 -1.667-2.283 44.573 44.573 0 0 0 1.246-4.821 1.75 1.75 0 1 1 3.432.683 47.681 47.681 0 0 1 -1.345 5.2 1.749 1.749 0 0 1 -1.666 1.221z" fill="#d12626"/></g></svg>