<svg id="Layer_3" enable-background="new 0 0 64 64" height="512" viewBox="0 0 64 64" width="512" xmlns="http://www.w3.org/2000/svg"><path d="m27 2-4.451 25.224c-.771 4.366-3.491 8.071-7.275 10.382-3.217 1.965-5.346 5.537-5.272 9.6.111 6.056 5.306 10.794 11.363 10.794h4.318c1.124 2.363 3.527 4 6.317 4s5.193-1.637 6.317-4h4.318c6.057 0 11.252-4.738 11.363-10.794.074-4.063-2.055-7.635-5.272-9.6-3.784-2.311-6.504-6.016-7.275-10.382l-4.451-25.224" fill="#efbe9a"/><path d="m32 62c-4.411 0-8-3.589-8-8 0-1.654-1.346-3-3-3h-3v-2h3c2.757 0 5 2.243 5 5 0 3.309 2.691 6 6 6s6-2.691 6-6c0-2.757 2.243-5 5-5h3v2h-3c-1.654 0-3 1.346-3 3 0 4.411-3.589 8-8 8z" fill="#db9b7c"/></svg>