<svg height="512pt" viewBox="-1 0 512 512.00013" width="512pt" xmlns="http://www.w3.org/2000/svg"><path d="m255.488281 256h-249.753906c-3.992187 4.460938-6.066406 10.390625-5.6914062 16.363281 5.0507812 79.96875 47.3945312 152.550781 113.5625002 196.695313 4.789062 3.195312 10.890625 4.535156 16.984375 3.257812 0 .003906 0 .007813.003906.011719zm0 0" fill="#ffa000"/><path d="m130.589844 39.671875c0 .003906 0 .003906-.003906.007813-5.851563-1.226563-12.011719-.054688-16.980469 3.261718-66.109375 44.109375-108.507813 116.660156-113.5625002 196.695313-.3749998 5.972656 1.6992192 11.902343 5.6914062 16.363281h249.753906zm0 0" fill="#ffa000"/><path d="m380.386719 39.671875c-1.855469-5.675781-5.925781-10.429687-11.261719-13.078125-71.414062-35.445312-155.796875-35.472656-227.269531 0-5.339844 2.648438-9.40625 7.402344-11.261719 13.078125l124.894531 216.328125zm0 0" fill="#ffa000"/><path d="m130.59375 472.328125c1.855469 5.675781 5.921875 10.429687 11.261719 13.078125 71.410156 35.441406 155.796875 35.472656 227.269531 0 11.574219-5.742188 15.832031-20.15625 9.375-31.347656l-110.023438-190.558594-12.988281-7.5zm0 0" fill="#ffa000"/><path d="m510.933594 239.636719c-5.046875-79.972657-47.394532-152.550781-113.558594-196.695313-4.96875-3.316406-11.128906-4.488281-16.984375-3.261718 0-.003907-.003906-.007813-.003906-.007813l-124.898438 216.328125 12.988281 7.5h219.996094c12.957032 0 23.277344-10.953125 22.460938-23.863281zm0 0" fill="#ffa000"/><path d="m203.949219 256-113.121094 195.933594c7.273437 6.128906 14.878906 11.855468 22.777344 17.125 4.789062 3.195312 10.890625 4.535156 16.980469 3.257812.003906.003906.003906.007813.003906.011719l124.898437-216.328125zm0 0" fill="#f57c00"/><path d="m130.589844 39.671875c0 .003906 0 .003906-.003906.007813-5.851563-1.226563-12.011719-.054688-16.980469 3.261718-2.308594 1.539063-4.582031 3.125-6.835938 4.742188l108.726563 188.320312h-215.167969c-.09375 1.210938-.207031 2.421875-.2851562 3.632813-.3749998 5.972656 1.6992192 11.902343 5.6914062 16.363281h249.753906zm0 0" fill="#f57c00"/><path d="m369.125 26.59375c-10.449219-5.183594-21.136719-9.597656-32.027344-13.269531 1.414063 1.917969 2.546875 4.050781 3.296875 6.347656l-110.675781 191.695313 25.769531 44.632812 124.898438-216.328125c-1.855469-5.675781-5.925781-10.429687-11.261719-13.078125zm0 0" fill="#f57c00"/><path d="m378.5 454.0625-110.023438-190.5625-12.988281-7.5-9.894531 17.136719 92.914062 160.925781c6.457032 11.1875 2.195313 25.601562-9.375 31.347656-63.136718 31.335938-134.070312 33.90625-195.242187 13.269532 2.078125 2.816406 4.789063 5.152343 7.964844 6.726562 35.5 17.621094 73.734375 26.554688 113.636719 26.554688 39.902343 0 78.132812-8.933594 113.632812-26.554688 11.574219-5.742188 15.832031-20.15625 9.375-31.34375zm0 0" fill="#f57c00"/><path d="m510.933594 239.636719c-5.046875-79.972657-47.394532-152.550781-113.558594-196.695313-4.96875-3.316406-11.128906-4.488281-16.984375-3.261718 0-.003907-.003906-.007813-.003906-.007813l-.230469.398437c54.136719 45.617188 86.417969 110.40625 90.785156 179.570313.8125 12.90625-9.503906 23.859375-22.464844 23.859375h-185.769531l-7.21875 12.5 12.988281 7.5h219.996094c12.957032 0 23.277344-10.953125 22.460938-23.863281zm0 0" fill="#f57c00"/><path d="m48.234375 256c0 12.394531-2.890625 24.886719-.820313 36.691406 2.125 12.136719 9.144532 22.890625 13.265626 34.210938 4.195312 11.527344 5.765624 24.261718 11.828124 34.738281 6.121094 10.578125 16.398438 18.28125 24.210938 27.582031 7.835938 9.324219 13.652344 20.777344 22.976562 28.609375 9.300782 7.8125 21.574219 11.566407 32.148438 17.683594l103.644531-179.515625zm0 0" fill="#ffe082"/><path d="m203.949219 256-90.085938 156.039062c1.808594 2.070313 3.730469 4.027344 5.832031 5.792969 9.300782 7.8125 21.574219 11.566407 32.148438 17.683594l103.644531-179.515625zm0 0" fill="#ffca28"/><path d="m151.84375 435.515625c10.441406 6.03125 19.835938 14.851563 31.375 19.050781 11.324219 4.121094 24.128906 3.445313 36.269531 5.570313 11.804688 2.070312 23.605469 7.117187 36 7.117187 12.398438 0 24.199219-5.046875 36.003907-7.117187 12.136718-2.125 24.945312-1.449219 36.269531-5.570313 5.691406-2.074218 10.859375-5.265625 15.890625-8.699218 8.671875-5.910157 11.363281-17.46875 6.117187-26.558594-25.492187-44.15625-94.28125-163.308594-94.28125-163.308594zm0 0" fill="#ffe082"/><path d="m255.488281 256-14.222656 24.636719 77.875 134.882812c-13.144531 8.089844-20.65625 15.148438-31.371094 19.050781-11.324219 4.121094-24.132812 3.445313-36.273437 5.570313-11.804688 2.066406-23.605469 7.117187-36 7.117187-12.394532 0-24.195313-5.050781-36-7.117187-8.128906-1.421875-16.558594-1.59375-24.636719-2.789063 9.296875 5.890626 17.949219 13.425782 28.359375 17.214844 11.324219 4.121094 24.132812 3.445313 36.273438 5.574219 11.800781 2.066406 23.601562 7.113281 36 7.113281 12.394531 0 24.195312-5.046875 36-7.113281 12.136718-2.128906 24.945312-1.453125 36.269531-5.574219 5.691406-2.070312 10.859375-5.265625 15.890625-8.695312 8.671875-5.914063 11.367187-17.472656 6.121094-26.558594-25.496094-44.160156-94.285157-163.3125-94.285157-163.3125zm0 0" fill="#ffca28"/><path d="m151.84375 76.484375c-10.574219 6.117187-22.847656 9.871094-32.148438 17.683594-9.328124 7.832031-15.144531 19.285156-22.976562 28.613281-7.8125 9.300781-18.09375 17.003906-24.210938 27.578125-6.0625 10.476563-7.632812 23.214844-11.828124 34.738281-4.121094 11.324219-11.140626 22.074219-13.265626 34.210938-2.070312 11.804687.820313 24.296875.820313 36.691406h207.253906zm0 0" fill="#ffe082"/><path d="m151.84375 76.484375c-7.066406 4.085937-14.890625 7.125-22.082031 11.019531l68.417969 118.503906c7.695312 13.332032-1.925782 29.996094-17.320313 29.996094h-133.910156c.453125 6.609375 1.285156 13.316406 1.285156 19.996094h207.253906zm0 0" fill="#ffca28"/><path d="m327.761719 57.433594c-11.324219-4.121094-24.132813-3.445313-36.269531-5.570313-11.804688-2.070312-23.605469-7.117187-36.003907-7.117187-12.394531 0-24.195312 5.046875-36 7.117187-12.136719 2.125-24.945312 1.449219-36.269531 5.570313-11.523438 4.195312-20.890625 12.984375-31.367188 19.046875-.003906 0-.003906.003906-.003906.003906l103.640625 179.515625 103.644531-179.515625-.003906-.003906c-10.476562-6.0625-19.84375-14.851563-31.367187-19.046875zm0 0" fill="#ffe082"/><path d="m359.128906 76.480469c-10.476562-6.0625-19.84375-14.851563-31.367187-19.046875-2.574219-.9375-5.230469-1.613282-7.933594-2.140625l-90.109375 156.074219 25.769531 44.632812 103.644531-179.515625zm0 0" fill="#ffca28"/><path d="m447.601562 256c8.34375 0 15.300782-6.386719 16.011719-14.707031.640625-7.460938 1.203125-14.847657-.046875-21.984375-2.125-12.136719-9.148437-22.890625-13.269531-34.210938-4.195313-11.527344-5.761719-24.261718-11.824219-34.742187-6.121094-10.574219-16.398437-18.277344-24.210937-27.578125-7.835938-9.328125-13.652344-20.777344-22.980469-28.609375-9.296875-7.8125-21.570312-11.566407-32.148438-17.683594l-103.644531 179.515625h100.984375v50.054688c-.003906 10.234374 8.292969 18.527343 18.527344 18.527343 11.835938 0 19.667969-9.09375 19.667969-19.097656v-6.878906c0-6.570313 5.328125-11.894531 11.898437-11.894531 6.570313 0 11.898438 5.324218 11.898438 11.894531v53.449219c0 8.046874 6.523437 14.570312 14.566406 14.570312 8.046875 0 14.570312-6.523438 14.570312-14.570312zm0 0" fill="#ffe082"/><path d="m463.566406 219.308594c-2.125-12.136719-9.148437-22.890625-13.269531-34.210938-4.195313-11.527344-5.761719-24.261718-11.824219-34.742187-6.121094-10.574219-16.398437-18.277344-24.210937-27.578125-7.835938-9.328125-13.652344-20.777344-22.980469-28.609375-9.296875-7.8125-21.570312-11.566407-32.148438-17.683594l-2.007812 3.480469c6.214844 7.105468 11.074219 15.59375 17.140625 22.816406 7.8125 9.300781 18.09375 17.003906 24.210937 27.578125 6.0625 10.476563 7.632813 23.214844 11.828126 34.738281 4.121093 11.324219 11.144531 22.074219 13.269531 34.214844.019531.117188.039062.234375.058593.355469 3.179688 19.066406-11.835937 36.335937-31.164062 36.335937h-125.433594l-11.546875 19.996094h152.121094v30.761719c6.082031.527343 10.855469 5.625 10.855469 11.84375v53.453125c0 8.046875 6.523437 14.566406 14.566406 14.566406 8.046875 0 14.570312-6.523438 14.570312-14.566406v-96.058594c8.339844 0 15.300782-6.386719 16.011719-14.707031.640625-7.460938 1.203125-14.847657-.046875-21.984375zm0 0" fill="#ffca28"/><path d="m262.90625 400.105469c0 16.417969-13.308594 29.722656-29.722656 29.722656-16.417969 0-29.726563-13.304687-29.726563-29.722656s13.308594-29.722657 29.726563-29.722657c16.414062 0 29.722656 13.304688 29.722656 29.722657zm0 0" fill="#ef5350"/><path d="m170.230469 352.96875c0 16.417969-13.304688 29.726562-29.722657 29.726562-16.417968 0-29.722656-13.308593-29.722656-29.726562 0-16.414062 13.304688-29.722656 29.722656-29.722656 16.417969 0 29.722657 13.308594 29.722657 29.722656zm0 0" fill="#ef5350"/><path d="m194.691406 199.863281c0 16.417969-13.308594 29.726563-29.726562 29.726563-16.414063 0-29.722656-13.308594-29.722656-29.726563 0-16.414062 13.308593-29.722656 29.722656-29.722656 16.417968 0 29.726562 13.308594 29.726562 29.722656zm0 0" fill="#ef5350"/><path d="m257.101562 99.140625c0 16.417969-13.308593 29.726563-29.726562 29.726563s-29.722656-13.308594-29.722656-29.726563c0-16.414063 13.304687-29.722656 29.722656-29.722656s29.726562 13.308593 29.726562 29.722656zm0 0" fill="#ef5350"/><g fill="#ff6f00"><path d="m387.671875 135.933594c0 8.207031-6.65625 14.863281-14.863281 14.863281-8.207032 0-14.863282-6.65625-14.863282-14.863281 0-8.210938 6.65625-14.863282 14.863282-14.863282 8.207031 0 14.863281 6.652344 14.863281 14.863282zm0 0"/><path d="m339.839844 213.121094c0 8.207031-6.652344 14.863281-14.863282 14.863281-8.207031 0-14.859374-6.65625-14.859374-14.863281 0-8.207032 6.652343-14.863282 14.859374-14.863282 8.210938 0 14.863282 6.65625 14.863282 14.863282zm0 0"/><path d="m322.402344 91.34375c0 8.210938-6.652344 14.863281-14.863282 14.863281-8.207031 0-14.859374-6.652343-14.859374-14.863281 0-8.207031 6.652343-14.859375 14.859374-14.859375 8.210938 0 14.863282 6.652344 14.863282 14.859375zm0 0"/><path d="m270.351562 173.578125c0 8.207031-6.652343 14.859375-14.863281 14.859375-8.207031 0-14.859375-6.652344-14.859375-14.859375 0-8.210937 6.652344-14.863281 14.859375-14.863281 8.210938 0 14.863281 6.652344 14.863281 14.863281zm0 0"/><path d="m103.808594 219.121094c0 8.207031-6.652344 14.859375-14.863282 14.859375-8.207031 0-14.859374-6.652344-14.859374-14.859375 0-8.210938 6.652343-14.863282 14.859374-14.863282 8.210938 0 14.863282 6.652344 14.863282 14.863282zm0 0"/><path d="m189.167969 289.621094c0 8.210937-6.65625 14.863281-14.863281 14.863281-8.210938 0-14.863282-6.652344-14.863282-14.863281 0-8.207032 6.652344-14.859375 14.863282-14.859375 8.207031 0 14.863281 6.652343 14.863281 14.859375zm0 0"/><path d="m154.761719 124.695312c-2.300781-7.878906-10.554688-12.398437-18.433594-10.09375-7.878906 2.300782-12.398437 10.554688-10.097656 18.433594 2.304687 7.878906 10.558593 12.398438 18.4375 10.09375 7.878906-2.300781 12.398437-10.554687 10.09375-18.433594zm0 0"/><path d="m109.160156 300.585938c0 8.210937-6.652344 14.863281-14.859375 14.863281-8.210937 0-14.863281-6.652344-14.863281-14.863281 0-8.207032 6.652344-14.863282 14.863281-14.863282 8.207031 0 14.859375 6.65625 14.859375 14.863282zm0 0"/><path d="m318.488281 414.96875c0 8.207031-6.65625 14.863281-14.863281 14.863281s-14.863281-6.65625-14.863281-14.863281c0-8.210938 6.65625-14.863281 14.863281-14.863281s14.863281 6.652343 14.863281 14.863281zm0 0"/><path d="m270.351562 330.3125c0 8.207031-6.652343 14.863281-14.863281 14.863281-8.207031 0-14.859375-6.65625-14.859375-14.863281 0-8.210938 6.652344-14.863281 14.859375-14.863281 8.210938 0 14.863281 6.652343 14.863281 14.863281zm0 0"/></g><path d="m427.792969 201.863281c0 16.417969-13.308594 29.726563-29.722657 29.726563-16.417968 0-29.726562-13.308594-29.726562-29.726563 0-16.414062 13.308594-29.722656 29.726562-29.722656 16.414063 0 29.722657 13.308594 29.722657 29.722656zm0 0" fill="#ef5350"/><path d="m239.371094 371.03125c2.257812 4.1875 3.539062 8.980469 3.539062 14.078125 0 18.859375-17.371094 33-35.910156 29.074219 5.019531 9.3125 14.859375 15.644531 26.183594 15.644531 16.417968 0 29.722656-13.304687 29.722656-29.722656 0-14.292969-10.089844-26.226563-23.535156-29.074219zm0 0" fill="#d32f2f"/><path d="m146.695312 323.894531c2.257813 4.191407 3.539063 8.984375 3.539063 14.078125 0 16.414063-13.308594 29.722656-29.722656 29.722656-2.121094 0-4.191407-.226562-6.1875-.648437 5.019531 9.316406 14.859375 15.648437 26.183593 15.648437 16.417969 0 29.722657-13.308593 29.722657-29.726562 0-14.292969-10.089844-26.226562-23.535157-29.074219zm0 0" fill="#d32f2f"/><path d="m171.152344 170.789062c2.257812 4.191407 3.542968 8.984376 3.542968 14.078126 0 16.417968-13.308593 29.722656-29.726562 29.722656-2.121094 0-4.191406-.226563-6.1875-.648438 5.019531 9.316406 14.863281 15.648438 26.183594 15.648438 16.417968 0 29.726562-13.308594 29.726562-29.726563 0-14.292969-10.09375-26.226562-23.539062-29.074219zm0 0" fill="#d32f2f"/><path d="m233.5625 70.066406c2.257812 4.191406 3.542969 8.984375 3.542969 14.078125 0 16.414063-13.308594 29.722657-29.726563 29.722657-2.121094 0-4.191406-.226563-6.1875-.648438 5.019532 9.316406 14.863282 15.648438 26.183594 15.648438 16.417969 0 29.726562-13.308594 29.726562-29.726563 0-14.292969-10.09375-26.226563-23.539062-29.074219zm0 0" fill="#d32f2f"/><path d="m404.253906 172.789062c2.257813 4.191407 3.542969 8.984376 3.542969 14.078126 0 16.414062-13.308594 29.722656-29.726563 29.722656-2.121093 0-4.1875-.226563-6.1875-.648438 5.019532 9.316406 14.863282 15.648438 26.1875 15.648438 16.414063 0 29.722657-13.308594 29.722657-29.726563 0-14.292969-10.089844-26.226562-23.539063-29.074219zm0 0" fill="#d32f2f"/></svg>