<?xml version="1.0" encoding="iso-8859-1"?>
<!-- Generator: Adobe Illustrator 19.0.0, SVG Export Plug-In . SVG Version: 6.00 Build 0)  -->
<svg version="1.1" id="Capa_1" xmlns="http://www.w3.org/2000/svg" xmlns:xlink="http://www.w3.org/1999/xlink" x="0px" y="0px"
	 viewBox="0 0 512 512" style="enable-background:new 0 0 512 512;" xml:space="preserve">
<path style="fill:#308FCF;" d="M256,0c-4.267,0-7.726,3.458-7.726,7.726v30.905h15.453V7.726C263.726,3.458,260.268,0,256,0z"/>
<rect x="248.274" y="219.398" style="fill:#174461;" width="15.453" height="199.886"/>
<g>
	<path style="fill:#308FCF;" d="M240.547,465.642c0,8.521-6.932,15.453-15.453,15.453c-8.521,0-15.453-6.932-15.453-15.453
		c0-8.534-6.919-15.453-15.453-15.453c-8.534,0-15.453,6.919-15.453,15.453c0,25.562,20.796,46.358,46.358,46.358
		s46.358-20.796,46.358-46.358v-61.811h-30.905V465.642z"/>
	<path style="fill:#308FCF;" d="M256,30.905l223.031,221.826c11.901,3.161,23.157,9.387,32.491,18.721
		C503.531,137.265,392.195,30.905,256,30.905z"/>
</g>
<path style="fill:#3DB2FF;" d="M256,30.905l153.314,240.547c18.89-18.89,45.632-25.118,69.719-18.721
	C464.346,127.506,370.097,30.905,256,30.905z"/>
<path style="fill:#FF4181;" d="M0.478,271.453c28.224-28.224,73.985-28.224,102.208,0L256,30.905
	C119.805,30.905,8.469,137.265,0.478,271.453z"/>
<path style="fill:#FF6E54;" d="M102.686,271.453c28.224-28.224,73.984-28.224,102.209,0L256,30.905
	C174.283,30.905,107.482,137.265,102.686,271.453z"/>
<path style="fill:#85C250;" d="M256,30.905l51.104,240.547c28.224-28.224,73.985-28.224,102.208,0
	C404.518,137.265,337.717,30.905,256,30.905z"/>
<path style="fill:#FFCE47;" d="M256,30.905c-27.239,0-49.506,106.36-51.104,240.547c28.224-28.224,73.985-28.224,102.209,0
	C305.506,137.265,283.239,30.905,256,30.905z"/>
<g>
</g>
<g>
</g>
<g>
</g>
<g>
</g>
<g>
</g>
<g>
</g>
<g>
</g>
<g>
</g>
<g>
</g>
<g>
</g>
<g>
</g>
<g>
</g>
<g>
</g>
<g>
</g>
<g>
</g>
</svg>
