<svg id="Capa_1" enable-background="new 0 0 512 512" height="512" viewBox="0 0 512 512" width="512" xmlns="http://www.w3.org/2000/svg"><g><g><path d="m46.233 377.406h-34.733c-4.143 0-7.5-3.357-7.5-7.5s3.357-7.5 7.5-7.5h27.233v-25.229c0-4.143 3.357-7.5 7.5-7.5s7.5 3.357 7.5 7.5v32.729c0 4.143-3.357 7.5-7.5 7.5z" fill="#21386b"/></g><g><path d="m19.241 227.998h-11.741c-4.143 0-7.5-3.358-7.5-7.5s3.357-7.5 7.5-7.5h11.741c4.143 0 7.5 3.358 7.5 7.5s-3.357 7.5-7.5 7.5z" fill="#26457d"/></g><g><path d="m504.5 261.034c0-5.409-2.023-10.623-5.673-14.616l-15.022-16.439-110.015-50.062c-4.715 0-8.537-3.822-8.537-8.537l-44.787-58.599h-300.86c-6.686 0-12.105 5.42-12.105 12.105v214.67c0 4.209 3.412 7.621 7.621 7.621h474.355c8.297 0 15.024-6.726 15.024-15.024v-71.119z" fill="#80b4fb"/></g><path d="m504.5 332.153v-71.119c0-5.071-1.798-9.957-5.027-13.84-1.342-1.613 2.164 2.352-15.669-17.215l-42.361-19.276 32.639 35.715c3.649 3.993 5.673 9.207 5.673 14.616v71.119c0 8.297-6.726 15.024-15.024 15.024h24.745c8.298 0 15.024-6.726 15.024-15.024z" fill="#61a2f9"/><path d="m383.169 119.856c-4.119-4.507-9.943-7.075-16.049-7.075h-46.652v108.661c0 4.715 3.822 8.537 8.537 8.537h154.801z" fill="#e4f6ff"/><path d="m358.424 119.856 100.636 110.123h24.745l-100.636-110.123c-4.119-4.507-9.943-7.075-16.049-7.075h-24.745c6.105 0 11.929 2.567 16.049 7.075z" fill="#d3effb"/><path d="m512 307.948c0-4.143-3.357-7.5-7.5-7.5h-229.754v-187.667c0-4.142-3.357-7.5-7.5-7.5s-7.5 3.358-7.5 7.5v187.667h-252.246c-4.143 0-7.5 3.357-7.5 7.5s3.357 7.5 7.5 7.5h252.246v31.729c0 4.143 3.357 7.5 7.5 7.5s7.5-3.357 7.5-7.5v-31.729h229.754c4.143 0 7.5-3.358 7.5-7.5z" fill="#5986cb"/><path d="m415.732 197.151c-2.93-2.929-7.678-2.929-10.607 0s-2.929 7.678 0 10.606l22.222 22.222h21.214z" fill="#21386b"/><g><path d="m402.981 217.402c-1.92 0-3.839-.732-5.304-2.197-2.929-2.929-2.929-7.678.001-10.606l14.896-14.895c2.929-2.93 7.678-2.929 10.606 0 2.929 2.929 2.929 7.678-.001 10.606l-14.896 14.895c-1.463 1.464-3.383 2.197-5.302 2.197z" fill="#26457d"/></g><g><path d="m117.279 246.683-5.331-5.478c-.683-.702-.668-1.825.034-2.508l37.908-36.898c.221-.215.346-.511.346-.82s-.125-.605-.346-.82l-37.908-36.899c-.702-.683-.717-1.806-.034-2.508l5.331-5.477c9.084-9.333 24.014-9.535 33.347-.451l35.074 34.14c1.819 1.77 3.299 3.886 4.167 6.271 2.306 6.335.587 13.133-3.97 17.568l-35.271 34.331c-9.333 9.084-24.263 8.882-33.347-.451z" fill="#f9f6f6"/></g><g><path d="m504.5 286.112h-14.931c-4.143 0-7.5-3.357-7.5-7.5s3.357-7.5 7.5-7.5h14.931c4.143 0 7.5 3.357 7.5 7.5s-3.357 7.5-7.5 7.5z" fill="#da4a54"/></g><circle cx="407.577" cy="350.375" fill="#26457d" r="56.344"/><path d="m407.577 294.03c-3.191 0-6.315.279-9.362.789 26.66 4.461 46.983 27.628 46.983 55.556s-20.323 51.095-46.983 55.556c3.046.51 6.171.789 9.362.789 31.118 0 56.344-25.226 56.344-56.344s-25.226-56.346-56.344-56.346z" fill="#21386b"/><circle cx="407.577" cy="350.375" fill="#f9f6f6" r="18.723"/><path d="m407.577 331.651c-2.726 0-5.308.596-7.644 1.643 6.526 2.926 11.079 9.465 11.079 17.08s-4.553 14.155-11.079 17.08c2.336 1.047 4.918 1.643 7.644 1.643 10.34 0 18.723-8.383 18.723-18.723s-8.383-18.723-18.723-18.723z" fill="#dddaec"/><circle cx="126.901" cy="350.375" fill="#26457d" r="56.344"/><path d="m126.901 294.03c-3.191 0-6.315.279-9.362.789 26.66 4.461 46.983 27.628 46.983 55.556s-20.322 51.095-46.982 55.555c3.046.51 6.171.789 9.362.789 31.118 0 56.344-25.226 56.344-56.344s-25.227-56.345-56.345-56.345z" fill="#21386b"/><circle cx="126.901" cy="350.375" fill="#f9f6f6" r="18.723"/><path d="m126.901 331.651c-2.726 0-5.308.596-7.644 1.643 6.526 2.926 11.079 9.465 11.079 17.08s-4.553 14.155-11.079 17.08c2.336 1.047 4.918 1.643 7.644 1.643 10.34 0 18.723-8.383 18.723-18.723s-8.382-18.723-18.723-18.723z" fill="#dddaec"/><path d="m349.859 160.015c-.932-6.804-6.745-11.874-13.612-11.874h-15.78v73.302c0 4.715 3.822 8.537 8.537 8.537h30.438z" fill="#26457d"/></g></svg>