<?xml version="1.0" encoding="iso-8859-1"?>
<!-- Generator: Adobe Illustrator 18.0.0, SVG Export Plug-In . SVG Version: 6.00 Build 0)  -->
<!DOCTYPE svg PUBLIC "-//W3C//DTD SVG 1.1//EN" "http://www.w3.org/Graphics/SVG/1.1/DTD/svg11.dtd">
<svg version="1.1" id="Capa_1" xmlns="http://www.w3.org/2000/svg" xmlns:xlink="http://www.w3.org/1999/xlink" x="0px" y="0px"
	 viewBox="0 0 60 60" style="enable-background:new 0 0 60 60;" xml:space="preserve">
<g>
	<polygon style="fill:#FBCE9D;" points="30,58.456 13,58.456 12,51.456 30,51.456 	"/>
	<polygon style="fill:#F7B563;" points="47,58.456 30,58.456 30,51.456 48,51.456 	"/>
	<path style="fill:#F7B563;" d="M45.457,6.559c-1.31-0.28-2.52,0.033-3.478,0.693c-0.184,0.127-0.396,0.205-0.619,0.205h-6.334
		c-0.582,0-1.034-0.485-1.026-1.067c0.02-1.522-0.307-2.876,1-3.663c0.578-0.348,1.123-0.744,1.63-1.182L23.364,1.545
		c0.51,0.438,1.057,0.834,1.636,1.183c1.306,0.787,0.98,2.141,1,3.662c0.008,0.581-0.444,1.066-1.026,1.066H18.64
		c-0.223,0-0.435-0.078-0.619-0.205c-0.958-0.659-2.168-0.972-3.478-0.693c-1.855,0.396-3.33,1.981-3.513,3.895
		c0.001,0.001,0.001,0.001,0.002,0.002h8.917H40.05h8.917c0.001-0.001,0.001-0.001,0.002-0.002
		C48.787,8.539,47.312,6.955,45.457,6.559z"/>
	<rect y="10.456" style="fill:#556080;" width="60" height="41"/>
	<path style="fill:#7383BF;" d="M17.772,34.68L8.782,23.737C9.517,23.19,10,22.322,10,21.335c0-0.982-0.478-1.845-1.207-2.392
		c0.001-0.001,0.002-0.001,0.003-0.002l6-7.879c0.138-0.181,0.188-0.394,0.188-0.605h-2.24L7.205,17.73
		c-0.138,0.182-0.188,0.396-0.188,0.607c-0.006,0-0.011-0.002-0.017-0.002c-1.657,0-3,1.343-3,3c0,1.655,1.34,2.996,2.993,2.999
		c0,0.224,0.06,0.449,0.213,0.635l9.021,10.979c0.198,0.24,0.484,0.365,0.773,0.365c0.224,0,0.448-0.074,0.634-0.228
		C18.062,35.736,18.123,35.107,17.772,34.68z"/>
	<path style="fill:#7383BF;" d="M56,21.335c0-1.657-1.343-3-3-3c-0.003,0-0.006,0.001-0.01,0.001c0-0.236-0.074-0.474-0.243-0.665
		l-6.41-7.215H44.01c0,0.236,0.074,0.474,0.243,0.664l6.952,7.825C50.477,19.493,50,20.355,50,21.335
		c0,0.987,0.483,1.855,1.218,2.402L42.228,34.68c-0.351,0.427-0.289,1.057,0.138,1.407c0.186,0.153,0.411,0.228,0.634,0.228
		c0.289,0,0.575-0.125,0.773-0.365l9.021-10.979c0.153-0.186,0.214-0.412,0.213-0.635C54.66,24.331,56,22.99,56,21.335z"/>
	<path style="fill:#7383BF;" d="M46.63,40.37c-0.93-1.421-3.768-2.142-5.248-1.907c-1.628,0.258-3.281,0.089-4.317-1.193
		l-0.559-0.496c-0.479-0.204-1.005-0.317-1.556-0.317H31v-5h6.248c0.552,0,1-0.447,1-1s-0.448-1-1-1H31v-2h8.248
		c0.552,0,1-0.447,1-1s-0.448-1-1-1H31v-2h12.248c0.552,0,1-0.447,1-1s-0.448-1-1-1H31v-2h12.248c0.552,0,1-0.447,1-1s-0.448-1-1-1
		H31v-2h8.248c0.552,0,1-0.447,1-1s-0.448-1-1-1H31v-3h-2v3h-7.752c-0.552,0-1,0.447-1,1s0.448,1,1,1H29v2H17.248
		c-0.552,0-1,0.447-1,1s0.448,1,1,1H29v2H17.248c-0.552,0-1,0.447-1,1s0.448,1,1,1H29v2h-7.752c-0.552,0-1,0.447-1,1s0.448,1,1,1H29
		v2h-5.752c-0.552,0-1,0.447-1,1s0.448,1,1,1H29v5h-3c-0.797,0-1.539,0.047-2.164,0.453l-0.81,0.486
		c-1.049,1.04-2.568,1.531-3.997,1.152c-1.587-0.42-4.451,0.145-5.465,1.696c-0.978,1.495-0.633,3.823,0.63,5.086l7.077,6.127h7.259
		c0.085-0.153,0.165-0.309,0.228-0.47c0.212-0.539,0.691-0.901,1.247-0.999c0.556,0.098,1.035,0.46,1.247,0.999
		c0.063,0.161,0.143,0.317,0.229,0.47h7.295l7.224-6C47.35,44.107,47.675,41.967,46.63,40.37z M22,47.456c-1.657,0-3-1.343-3-3
		s1.343-3,3-3s3,1.343,3,3S23.657,47.456,22,47.456z M37.949,47.456c-1.657,0-3-1.343-3-3s1.343-3,3-3s3,1.343,3,3
		S39.606,47.456,37.949,47.456z"/>
	<path style="fill:#3E465B;" d="M58,12.456v37H2v-37H58 M60,10.456H0v41h60V10.456L60,10.456z"/>
</g>
<g>
</g>
<g>
</g>
<g>
</g>
<g>
</g>
<g>
</g>
<g>
</g>
<g>
</g>
<g>
</g>
<g>
</g>
<g>
</g>
<g>
</g>
<g>
</g>
<g>
</g>
<g>
</g>
<g>
</g>
</svg>
