<svg id="Capa_1" enable-background="new 0 0 512 512" height="512" viewBox="0 0 512 512" width="512" xmlns="http://www.w3.org/2000/svg"><g><path d="m394.378 465.692h-276.756c-14.854 0-26.896-12.042-26.896-26.896v-290.039c0-82.156 66.601-148.757 148.757-148.757h33.033c82.156 0 148.757 66.601 148.757 148.757v290.039c.001 14.855-12.041 26.896-26.895 26.896z" fill="#365e7d"/><path d="m272.517 0h-31.201c82.156 0 148.757 66.601 148.757 148.757v290.039c0 14.854-12.042 26.896-26.896 26.896h31.201c14.854 0 26.896-12.042 26.896-26.896v-290.039c0-82.156-66.601-148.757-148.757-148.757z" fill="#2b4d66"/><path d="m303.152 347.718h-19.368-55.567-19.368c-38.542 0-69.786 31.244-69.786 69.786v85.608c0 4.909 3.979 8.888 8.888 8.888h216.099c4.909 0 8.888-3.979 8.888-8.888v-85.608c0-38.542-31.244-69.786-69.786-69.786z" fill="#80b4fb"/><path d="m303.152 347.718h-34.004c38.542 0 69.786 31.244 69.786 69.786v85.608c0 4.909-3.979 8.888-8.888 8.888h34.004c4.909 0 8.888-3.979 8.888-8.888v-85.608c0-38.542-31.244-69.786-69.786-69.786z" fill="#61a2f9"/><path d="m275.45 296.259-37.314-2.195c-9.527 0-9.945 44.635-9.945 44.635v27.325c0 15.344 12.439 27.784 27.784 27.784 15.344 0 27.784-12.439 27.784-27.784v-27.324c-.001 0 1.218-42.441-8.309-42.441z" fill="#eaac9d"/><path d="m256 347.718c-74.046 0-134.073-60.026-134.073-134.072v-81.091c0-1.947 1.583-3.518 3.53-3.522 62.052-.114 116.894-9.002 165.813-40.613 1.462-.944 3.415-.643 4.462.747 22.091 29.327 52.22 37.443 90.826 39.677 1.969.114 3.514 1.731 3.514 3.703v81.1c0 74.044-60.026 134.071-134.072 134.071z" fill="#ffcbbe"/><path d="m386.559 128.843c-11.36-.657-21.98-1.831-31.883-3.898v88.7c0 68.046-50.694 124.246-116.374 132.908 5.792.764 11.698 1.164 17.698 1.164 74.046 0 134.072-60.026 134.072-134.072v-81.1c0-1.971-1.545-3.588-3.513-3.702z" fill="#eaac9d"/><g><g><path d="m209.327 196.554c-4.268 0-7.726-3.459-7.726-7.726 0-1.818-1.479-3.298-3.297-3.298s-3.298 1.48-3.298 3.298c0 4.268-3.459 7.726-7.726 7.726-4.268 0-7.726-3.459-7.726-7.726 0-10.339 8.411-18.751 18.751-18.751 10.338 0 18.749 8.411 18.749 18.751 0 4.267-3.459 7.726-7.727 7.726z" fill="#365e7d"/></g><g><path d="m324.72 196.554c-4.268 0-7.726-3.459-7.726-7.726 0-1.818-1.48-3.298-3.298-3.298s-3.297 1.48-3.297 3.298c0 4.268-3.459 7.726-7.726 7.726s-7.726-3.459-7.726-7.726c0-10.339 8.411-18.751 18.749-18.751 10.339 0 18.751 8.411 18.751 18.751-.001 4.267-3.46 7.726-7.727 7.726z" fill="#365e7d"/></g></g><path d="m256 236.331c-28.002 0-50.701 19.057-50.701 42.564 0 8.988 3.054 17.553 8.983 24.196.255.286.255.286.255.286-.473-1.536 5.14-.235 5.14-1.706 0-9.135 2.755.815 15.237.815 8.351 0 14.241 2.718 17.636 4.912 2.021 1.306 4.88 1.306 6.901 0 3.394-2.194 9.285-4.912 17.636-4.912 12.483 0 16.88-9.95 16.88-.815 0 1.471 3.97.17 3.497 1.707 0 0 0 0 .386-.445 5.783-6.673 8.853-15.118 8.853-24.037-.002-23.508-22.702-42.565-50.703-42.565z" fill="#da4a54"/><path d="m277.086 281.883c-8.351 0-14.241 2.718-17.636 4.912-2.021 1.306-4.88 1.306-6.901 0-3.394-2.194-9.285-4.912-17.636-4.912-12.483 0-21.086 7.844-21.086 16.978 0 1.471.236 2.981.709 4.517 9.177 10.933 24.321 18.082 41.463 18.082s32.286-7.149 41.462-18.082c.473-1.536.709-3.046.709-4.517.002-9.135-8.601-16.978-21.084-16.978z" fill="#dd636e"/></g></svg>