<svg height="512" viewBox="0 0 64 64" width="512" xmlns="http://www.w3.org/2000/svg"><g id="flat"><path d="m30 59-5 2h-9v-6l14-4z" fill="#32b1cc"/><path d="m16 61v-2l14-4v4l-5 2z" fill="#195c85"/><path d="m34 59 5 2h9v-6l-14-4z" fill="#32b1cc"/><path d="m48 61v-2l-14-4v4l5 2z" fill="#195c85"/><path d="m27 33-20 2v-8l20-6z" fill="#195c85"/><rect fill="#cdeef6" height="14" rx="2" width="4" x="3" y="24"/><path d="m7 31 20-6v-4l-20 6z" fill="#32b1cc"/><path d="m37 33 20 2v-8l-20-6z" fill="#195c85"/><rect fill="#cdeef6" height="14" rx="2" transform="matrix(-1 0 0 -1 118 62)" width="4" x="57" y="24"/><path d="m57 31-20-6v-4l20 6z" fill="#32b1cc"/><path d="m38.23 10.07a51.83 51.83 0 0 1 1.77 14.93c0 14.91-3.58 32-8 32s-8-17.09-8-32a51.83 51.83 0 0 1 1.77-14.93l6.23-4z" fill="#cdeef6"/><g fill="#195c85"><path d="m36 19s-2-2-4-2-4 2-4 2v-4a4.333 4.333 0 0 1 4-2 4.333 4.333 0 0 1 4 2z"/><path d="m38.23 10.07a28.247 28.247 0 0 0 -6.23-1.15 28.247 28.247 0 0 0 -6.23 1.15c1.46-4.76 3.71-7.07 6.23-7.07s4.77 2.31 6.23 7.07z"/><rect height="20" rx="2" width="4" x="30" y="23"/></g></g></svg>