<svg height="512" viewBox="0 0 58 58" width="512" xmlns="http://www.w3.org/2000/svg"><g id="Page-1" fill="none" fill-rule="evenodd"><g id="076---Daisy" fill-rule="nonzero"><path id="Shape" d="m40 29c.0035148 3.8796809-2.0369879 7.4743096-5.37 9.46-1.2422145.7377834-2.6190455 1.2205242-4.05 1.42-.5228085.0804726-1.0510348.120591-1.58.12-3.8796809.0035148-7.4743096-2.0369879-9.46-5.37-.7377834-1.2422145-1.2205242-2.6190455-1.42-4.05-.0804726-.5228085-.120591-1.0510348-.12-1.58-.0035148-3.8796809 2.0369879-7.4743096 5.37-9.46 1.2422145-.7377834 2.6190455-1.2205242 4.05-1.42.5228085-.0804726 1.0510348-.120591 1.58-.12 3.8796809-.0035148 7.4743096 2.0369879 9.46 5.37.7377834 1.2422145 1.2205242 2.6190455 1.42 4.05.0804726.5228085.120591 1.0510348.12 1.58z" fill="#f29c1f"/><path id="Shape" d="m33.41 4.4c.0099626.18653374.0099626.37346626 0 .56l-.68 5.42-1 8c-.8904682-.240628-1.8076669-.3682967-2.73-.38-.5289652-.000591-1.0571915.0395274-1.58.12l-2.12-7.73-.68-5.39c-.1890524-1.61988391.5313269-3.2118584 1.8729678-4.1390931 1.341641-.9272347 3.0854834-1.03833274 4.5339459-.28885207 1.4484624.74948068 2.3650431 2.23716647 2.3830863 3.86794517z" fill="#d1d4d1"/><path id="Shape" d="m27.42 18.12c-1.4309545.1994758-2.8077855.6822166-4.05 1.42l-4.92-6.33-2.7-4.75c-.6235424-1.09974123-.7451294-2.41420087-.3338918-3.6096588.4112375-1.19545792 1.3157483-2.15693992 2.4838918-2.6403412 1.1679698-.48426815 2.4876176-.44392292 3.623823.11079013s1.9796621 1.57042897 2.316177 2.78920987l1.45 5.27z" fill="#ecf0f1"/><path id="Shape" d="m23.37 19.54c-1.2406484.7432222-2.3242525 1.721523-3.19 2.88l-7-4-4.28-3.32c-.99571715-.7786093-1.61044833-1.9462596-1.6888182-3.2078234s.38712098-2.49631882 1.2788182-3.3921766c.89585778-.89169722 2.1306128-1.35718807 3.3921766-1.2788182s2.4292141.69310105 3.2078234 1.6888182l3.33 4.27z" fill="#d1d4d1"/><path id="Shape" d="m20.18 22.42c-.861098 1.156907-1.4862921 2.4718532-1.84 3.87l-7.93-1-5.3-1.44c-1.2187809-.3365149-2.23449682-1.1799716-2.78920987-2.316177s-.59505828-2.4558532-.11079013-3.623823c.48340128-1.1681435 1.44488328-2.0726543 2.6403412-2.4838918 1.19545793-.4112376 2.50991757-.2896506 3.6096588.3338918l4.71 2.68z" fill="#ecf0f1"/><path id="Shape" d="m18 29c-.000591.5289652.0395274 1.0571915.12 1.58l-7.73 2.12-5.39.68c-1.61988391.1890524-3.2118584-.5313269-4.1390931-1.8729678-.9272347-1.341641-1.03833274-3.0854834-.28885207-4.5339459.74948068-1.4484624 2.23716647-2.3650431 3.86794517-2.3830863.18653374-.0099626.37346626-.0099626.56 0l5.43.68 7.93 1c-.2338762.8913286-.3548237 1.8085132-.36 2.73z" fill="#d1d4d1"/><path id="Shape" d="m19.54 34.63-6.33 4.92-4.75 2.7c-1.09974123.6235424-2.41420087.7451294-3.6096588.3338918-1.19545792-.4112375-2.15693992-1.3157483-2.6403412-2.4838918-.48426815-1.1679698-.44392292-2.4876176.11079013-3.623823s1.57042897-1.9796621 2.78920987-2.316177l5.27-1.45 7.73-2.12c.2038442 1.4282197.689957 2.8015735 1.43 4.04z" fill="#ecf0f1"/><path id="Shape" d="m22.42 37.82-4 7-3.32 4.28c-.7786093.9957171-1.9462596 1.6104483-3.2078234 1.6888182s-2.49631882-.387121-3.3921766-1.2788182c-.89169722-.8958578-1.35718807-2.1306128-1.2788182-3.3921766s.69310105-2.4292141 1.6888182-3.2078234l4.31-3.35 6.33-4.92c.7413257 1.2361379 1.7161077 2.31621 2.87 3.18z" fill="#d1d4d1"/><path id="Shape" d="m26.29 39.66-1 7.93-1.45 5.28c-.3365149 1.2187809-1.1799716 2.2344968-2.316177 2.7892099-1.1362054.554713-2.4558532.5950582-3.623823.1107901-1.1681435-.4834013-2.0726543-1.4448833-2.4838918-2.6403412-.4112376-1.1954579-.2896506-2.5099176.3338918-3.6096588l2.68-4.71 4-7c1.1531144.863473 2.464607 1.4920381 3.86 1.85z" fill="#ecf0f1"/><path id="Shape" d="m29 58c-1.1686842.0026561-2.2904122-.4597412-3.1177363-1.2851893-.8273242-.8254481-1.2922667-1.9461235-1.2922637-3.1148107-.0099626-.1865337-.0099626-.3734663 0-.56l.68-5.43 1-7.93c.8930413.2203902 1.8101999.3278959 2.73.32.5289652.000591 1.0571915-.0395274 1.58-.12l2.12 7.73.68 5.39c.1704708 1.2627191-.2135423 2.5374556-1.0531345 3.4958942s-2.0526944 1.506893-3.3268655 1.5041058z" fill="#d1d4d1"/><path id="Shape" d="m40.1 55.79c-1.1679698.4842681-2.4876176.4439229-3.623823-.1107901-1.1362054-.5547131-1.9796621-1.570429-2.316177-2.7892099l-1.46-5.27-2.12-7.73c1.4309545-.1994758 2.8077855-.6822166 4.05-1.42l4.92 6.33 2.7 4.75c.6199978 1.0988883.7396188 2.4107097.3286025 3.603613-.4110164 1.1929033-1.3133008 2.152626-2.4786025 2.636387z" fill="#ecf0f1"/><path id="Shape" d="m49.51 49.5c-.8958578.8916972-2.1306128 1.3571881-3.3921766 1.2788182s-2.4292141-.6931011-3.2078234-1.6888182l-3.35-4.31-4.92-6.33c1.2406484-.7432222 2.3242525-1.721523 3.19-2.88l7 4 4.27 3.33c.9957171.7786093 1.6104483 1.9462596 1.6888182 3.2078234s-.387121 2.4963188-1.2788182 3.3921766z" fill="#d1d4d1"/><path id="Shape" d="m55.79 40.09c-.4834013 1.1681435-1.4448833 2.0726543-2.6403412 2.4838918-1.1954579.4112376-2.5099176.2896506-3.6096588-.3338918l-4.71-2.68-7-4c.861098-1.156907 1.4862921-2.4718532 1.84-3.87l7.93 1 5.28 1.45c1.2231842.3338007 2.24352 1.1779248 2.8005717 2.3169137s.5969199 2.4626358.1094283 3.6330863z" fill="#ecf0f1"/><path id="Shape" d="m58 29c.0026561 1.1686842-.4597412 2.2904122-1.2851893 3.1177363-.8254481.8273242-1.9461235 1.2922667-3.1148107 1.2922637-.1865337.0099626-.3734663.0099626-.56 0l-5.43-.68-7.93-1c.2203902-.8930413.3278959-1.8101999.32-2.73.000591-.5289652-.0395274-1.0571915-.12-1.58l7.73-2.12 5.39-.68c1.2627191-.1704708 2.5374556.2135423 3.4958942 1.0531345s1.506893 2.0526944 1.5041058 3.3268655z" fill="#d1d4d1"/><path id="Shape" d="m52.89 23.85-5.27 1.45-7.73 2.12c-.1994758-1.4309545-.6822166-2.8077855-1.42-4.05l6.33-4.92 4.75-2.7c1.0997412-.6235424 2.4142009-.7451294 3.6096588-.3338918 1.1954579.4112375 2.1569399 1.3157483 2.6403412 2.4838918.4874916 1.1704505.4476234 2.4940974-.1094283 3.6330863s-1.5773875 1.983113-2.8005717 2.3169137z" fill="#ecf0f1"/><path id="Shape" d="m49.1 15.1-4.31 3.35-6.33 4.92c-.7432222-1.2406484-1.721523-2.3242525-2.88-3.19l4-7 3.32-4.28c.7786093-.99571715 1.9462596-1.61044833 3.2078234-1.6888182s2.4963188.38712098 3.3921766 1.2788182c.8963023.89474093 1.3657421 2.1309738 1.2892431 3.3951206-.0764991 1.2641468-.691587 2.4347502-1.6892431 3.2148794z" fill="#d1d4d1"/><path id="Shape" d="m42.25 8.46-2.68 4.71-4 7c-1.156907-.861098-2.4718532-1.4862921-3.87-1.84l1-7.95 1.45-5.27c.3365149-1.2187809 1.1799716-2.23449682 2.316177-2.78920987s2.4558532-.59505828 3.623823-.11079013c1.1698964.48140446 2.0767146 1.44204392 2.4899417 2.63772415.4132271 1.19568024.2930648 2.51124416-.3299417 3.61227585z" fill="#ecf0f1"/><circle id="Oval" cx="29" cy="29" fill="#f0c419" r="7"/></g></g></svg>