<?xml version="1.0" encoding="iso-8859-1"?>
<!-- Generator: Adobe Illustrator 19.0.0, SVG Export Plug-In . SVG Version: 6.00 Build 0)  -->
<svg version="1.1" id="Capa_1" xmlns="http://www.w3.org/2000/svg" xmlns:xlink="http://www.w3.org/1999/xlink" x="0px" y="0px"
	 viewBox="0 0 512 512" style="enable-background:new 0 0 512 512;" xml:space="preserve">
<path style="fill:#9C969E;" d="M464.857,451.099h33.564c4.956,0,8.875-4.168,8.528-9.111c-1.625-23.181-5.767-83.358-5.767-94.522
	c0-13.889,19.231-104.702,6.41-152.779l-30.983,30.983L464.857,451.099z"/>
<path style="fill:#867E88;" d="M233.017,255.05l-64.69,114.923c-1.728,3.007-2.827,6.334-3.232,9.779l-3.848,32.701
	c-0.347,2.949-1.204,5.816-2.532,8.472l-10.393,20.787c-2.156,4.313,0.98,9.387,5.802,9.387h53.786l13.355-76.39l60.898-72.116
	L233.017,255.05z"/>
<path style="fill:#AEA8AF;" d="M507.593,194.686c-8.547-51.283-68.377-119.659-119.659-111.112s-68.377,17.094-119.659-8.547
	s-76.924-8.547-76.924-8.547c-25.641,8.547-58.187,2.932-81.197,13.889C91.466,89.266,63.5,173.496,56.199,217.122
	c-0.607,3.63-4.42,23.075-4.452,30.983C51.61,281.581,61.224,369,96.347,392.054c6.652,4.365,13.914,6.556,21.518,6.556
	c5.726,0,11.652-1.244,17.645-3.739c4.365-1.815,6.427-6.819,4.607-11.176c-1.803-4.365-6.844-6.402-11.168-4.607
	c-8.864,3.681-16.226,3.255-23.221-1.323c-5.683-3.73-10.673-10.064-15.06-17.972c-11.64-34.336-6.512-88.11-3.507-111.212
	c0.871-6.698,5.235-12.265,11.381-15.066c16.664-7.595,36.363-20.508,47.78-28.371c6.035-4.157,13.716-5.082,20.548-2.433l0,0
	c7.612,2.952,12.972,9.864,13.937,17.971l22.794,191.457c0.371,3.12-0.125,6.283-1.434,9.139l-10.338,22.557
	c-1.557,3.397,0.925,7.266,4.662,7.266h37.592c4.72,0,8.547-3.827,8.547-8.547v-153.85c0,0,68.8,58.549,157.109,34.412
	l23.108,26.274c2.743,3.119,4.257,7.131,4.257,11.285v52.975c0,2.154-0.407,4.288-1.2,6.291l-9.555,24.142
	c-1.332,3.366,1.148,7.016,4.768,7.016h52.284V339.986C473.405,314.345,516.14,245.968,507.593,194.686z"/>
<g>
	<path style="fill:#9C969E;" d="M242.633,288.646v0.057c0,0,68.8,58.549,157.109,34.412l-25.713-25.712
		c-3.338-3.338-7.899-4.997-12.619-4.95c-33.343,0.338-72.179-11.293-96.122-19.844
		C254.222,268.658,242.633,276.895,242.633,288.646z"/>
	<path style="fill:#9C969E;" d="M171.897,93.759l-16.559,37.727c-10.442,23.79-7.262,51.792,9.456,71.679
		c1.328,1.579,2.557,2.885,3.63,3.848c3.243,2.913,8.121,2.841,11.331-0.109c0.635-0.584,1.316-1.216,2.038-1.894
		c4.288-4.031,8.316-8.329,12.146-12.797l12.226-14.264c6.3-7.35,12.133-15.127,16.89-23.558
		c5.104-9.046,9.128-18.565,11.032-28.083c4.686-23.426-8.274-49.975-30.972-52.169C189.726,72.845,177.302,81.443,171.897,93.759z"
		/>
</g>
<path style="fill:#EDEBED;" d="M2.136,244.011c13.018-3.756,40.306-13.003,57.228-28.473c2.454-2.243,5.922-2.942,8.878-1.42
	c5.305,2.732,13.426,7.816,17.725,15.024c2.537,4.254,0.621,9.77-3.744,12.111c-14.121,7.574-48.685,22.554-80.427,8.379
	C-0.752,248.494-0.545,244.784,2.136,244.011z"/>
<path style="fill:#4B3F4E;" d="M97.332,169.044c-4.724,0-8.589-3.827-8.589-8.547s3.781-8.547,8.505-8.547h0.083
	c4.724,0,8.547,3.827,8.547,8.547S102.056,169.044,97.332,169.044z"/>
<path style="fill:#DBD9DC;" d="M80.664,222.818C64.968,233.46,33.759,250.521,0.105,246.41c-0.193,1.251,0.311,2.605,1.69,3.221
	c31.743,14.175,66.307-0.805,80.427-8.379c4.364-2.341,6.281-7.858,3.744-12.112C84.553,226.771,82.668,224.72,80.664,222.818z"/>
<g>
</g>
<g>
</g>
<g>
</g>
<g>
</g>
<g>
</g>
<g>
</g>
<g>
</g>
<g>
</g>
<g>
</g>
<g>
</g>
<g>
</g>
<g>
</g>
<g>
</g>
<g>
</g>
<g>
</g>
</svg>
