<?xml version="1.0" encoding="UTF-8"?>
<svg xmlns="http://www.w3.org/2000/svg" xmlns:xlink="http://www.w3.org/1999/xlink" width="512" height="512" viewBox="0 0 41 58" version="1.1"><!-- Generator: Sketch 51.3 (57544) - http://www.bohemiancoding.com/sketch --><title>016 - Germanic Foot Type</title><desc>Created with Sketch.</desc><defs/><g id="Page-1" stroke="none" stroke-width="1" fill="none" fill-rule="evenodd"><g id="016---Germanic-Foot-Type" fill-rule="nonzero"><path d="M40.76,37.95 C40.3,43.39 38.04,52.54 38,58 L5,58 C4.77,57.88 5.01,55.06 5.01,54.7 C5.13054058,51.4160112 4.93968789,48.1279878 4.44,44.88 C3.79,41.48 2.72,38.19 1.92,34.82 C1.3437919,32.5312253 0.975627579,30.1950553 0.82,27.84 C0.72,25.95 0.95,24.07 1.01,22.18 C1.11,18.75 1,15.31 1,11.87 L1,6 C1,2.6862915 3.6862915,6.66133815e-16 7,0 C10.3137085,-6.66133815e-16 13,2.6862915 13,6 L13,11.31 C13,10.0595704 13.6670962,8.90412581 14.75,8.278911 C15.8329038,7.65369619 17.1670962,7.65369619 18.25,8.278911 C19.3329038,8.90412581 20,10.0595704 20,11.31 L20,12.31 C20,10.3770034 21.5670034,8.81 23.5,8.81 C25.4329966,8.81 27,10.3770034 27,12.31 C27,10.3770034 28.5670034,8.81 30.5,8.81 C32.4329966,8.81 34,10.3770034 34,12.31 L34,14.05 C34,12.3931458 35.3431458,11.05 37,11.05 C38.6568542,11.05 40,12.3931458 40,14.05 L40,28 C40.0849951,29.6916311 40.3057046,31.3737045 40.66,33.03 C40.8983176,34.6594176 40.9319116,36.3122444 40.76,37.95 Z" id="Shape" fill="#FDD7AD"/><path d="M8.0005,16 L6.0005,16 C5.44821525,16 5.0005,15.5522847 5.0005,15 C5.0005,14.4477153 5.44821525,14 6.0005,14 L8.0005,14 C8.55278475,14 9.0005,14.4477153 9.0005,15 C9.0005,15.5522847 8.55278475,16 8.0005,16 Z" id="Shape" fill="#F09372"/><path d="M7,28 C6.44771525,28 6,27.5522847 6,27 L6,24 C6,23.4477153 6.44771525,23 7,23 C7.55228475,23 8,23.4477153 8,24 L8,27 C8,27.5522847 7.55228475,28 7,28 Z" id="Shape" fill="#F09372"/><path d="M5,0 L9,0 C10.1045695,0 11,0.8954305 11,2 L11,7 C11,9.209139 9.209139,11 7,11 C4.790861,11 3,9.209139 3,7 L3,2 C3,0.8954305 3.8954305,2.22044605e-16 5,0 Z" id="Shape" fill="#ECF0F1"/><path d="M15,8 L18,8 C18.5522847,8 19,8.44771525 19,9 L19,11.5 C19,12.8807119 17.8807119,14 16.5,14 C15.1192881,14 14,12.8807119 14,11.5 L14,9 C14,8.44771525 14.4477153,8 15,8 Z" id="Shape" fill="#ECF0F1"/><path d="M22,9 L25,9 C25.5522847,9 26,9.44771525 26,10 L26,12.5 C26,13.8807119 24.8807119,15 23.5,15 C22.1192881,15 21,13.8807119 21,12.5 L21,10 C21,9.44771525 21.4477153,9 22,9 Z" id="Shape" fill="#ECF0F1"/><path d="M29,9 L32,9 C32.5522847,9 33,9.44771525 33,10 L33,12.5 C33,13.8807119 31.8807119,15 30.5,15 C29.1192881,15 28,13.8807119 28,12.5 L28,10 C28,9.44771525 28.4477153,9 29,9 Z" id="Shape" fill="#ECF0F1"/><path d="M36,11 L38,11 C38.5522847,11 39,11.4477153 39,12 L39,13 C39,14.1045695 38.1045695,15 37,15 C35.8954305,15 35,14.1045695 35,13 L35,12 C35,11.4477153 35.4477153,11 36,11 Z" id="Shape" fill="#ECF0F1"/><path d="M13,25 C12.4477153,25 12,24.5522847 12,24 L12,15 C12,14.4477153 12.4477153,14 13,14 C13.5522847,14 14,14.4477153 14,15 L14,24 C14,24.5522847 13.5522847,25 13,25 Z" id="Shape" fill="#F09372"/><path d="M20,22 C19.4477153,22 19,21.5522847 19,21 L19,16 C19,15.4477153 19.4477153,15 20,15 C20.5522847,15 21,15.4477153 21,16 L21,21 C21,21.5522847 20.5522847,22 20,22 Z" id="Shape" fill="#F09372"/><path d="M27,22 C26.4477153,22 26,21.5522847 26,21 L26,16 C26,15.4477153 26.4477153,15 27,15 C27.5522847,15 28,15.4477153 28,16 L28,21 C28,21.5522847 27.5522847,22 27,22 Z" id="Shape" fill="#F09372"/><path d="M34,21 C33.4477153,21 33,20.5522847 33,20 L33,17 C33,16.4477153 33.4477153,16 34,16 C34.5522847,16 35,16.4477153 35,17 L35,20 C35,20.5522847 34.5522847,21 34,21 Z" id="Shape" fill="#F09372"/></g></g></svg>
