<svg height="511pt" viewBox="0 0 511.99982 511" width="511pt" xmlns="http://www.w3.org/2000/svg"><path d="m312.40625 364.269531c12.113281-5.808593 23.476562-13.714843 33.535156-23.722656 47.5625-47.308594 35.523438-112.210937-11.261718-160.292969-47.9375-49.269531-114.039063-62.382812-162.492188-13.933594-10.191406 10.191407-18.21875 21.730469-24.082031 34.039063-7.5 15.730469-22.207031 26.8125-39.289063 30.257813-27.347656 5.515624-53.429687 18.875-74.632812 40.082031-57.335938 57.332031-37.066406 130.015625 20.265625 187.347656 57.335937 57.335937 130.019531 77.601563 187.351562 20.269531 21.210938-21.207031 34.570313-47.289062 40.085938-74.644531 3.464843-17.179687 14.714843-31.824219 30.519531-39.402344zm0 0" fill="#eab9a4"/><path d="m197.804688 246.460938c22.734374-60.445313 65.453124-89.761719 87.125-101.28125-38.199219-16.332032-79.601563-12-112.742188 21.140624-10.191406 10.191407-18.21875 21.726563-24.082031 34.035157-7.5 15.734375-22.207031 26.816406-39.289063 30.261719-27.347656 5.515624-53.429687 18.871093-74.632812 40.078124-39.246094 39.246094-42.128906 85.691407-21.652344 129.476563 65.636719-117.296875 157.222656-79.117187 185.273438-153.710937zm0 0" fill="#e5a78c"/><path d="m499.007812 112.941406-99.449218-99.449218c-2.972656-2.972657-2.972656-7.792969 0-10.761719 2.972656-2.972657 7.789062-2.972657 10.761718 0l99.449219 99.449219c2.972657 2.972656 2.972657 7.789062 0 10.761718-1.484375 1.488282-5.503906 4.128906-10.761719 0zm0 0" fill="#acabb1"/><path d="m480.359375 131.589844-99.449219-99.449219c-2.972656-2.976563-2.972656-7.792969 0-10.765625s7.792969-2.972656 10.761719 0l99.453125 99.449219c2.972656 2.972656 2.972656 7.792969 0 10.765625-1.488281 1.484375-5.949219 4.359375-10.765625 0zm0 0" fill="#acabb1"/><path d="m390.984375 76.347656 45.164063 45.164063-232.777344 232.777343-45.164063-45.164062zm0 0" fill="#ffdaaa"/><path d="m158.207031 309.128906 22.582031 22.582032 221.929688-221.929688c3.625-3.628906 7.042969-7.449219 10.265625-11.433594l-22-21.996094zm0 0" fill="#ffc477"/><path d="m247.265625 317.628906c0 28.9375-23.457031 52.394532-52.394531 52.394532s-52.394532-23.457032-52.394532-52.394532 23.457032-52.398437 52.394532-52.398437 52.394531 23.460937 52.394531 52.398437zm0 0" fill="#898890"/><path d="m190.917969 313.671875c14.511719-14.511719 35.433593-18.714844 53.664062-12.640625-2.488281-7.472656-6.710937-14.503906-12.660156-20.453125-20.460937-20.460937-53.636719-20.460937-74.097656 0-20.464844 20.460937-20.464844 53.636719 0 74.097656 5.949219 5.949219 12.980469 10.171875 20.453125 12.660157-6.074219-18.230469-1.871094-39.152344 12.640625-53.664063zm0 0" fill="#77777f"/><path d="m477.308594 20.472656-31.710938-9.277344c-9.304687-2.71875-19.351562-.152343-26.207031 6.703126l-22.046875 22.050781c-5.53125 5.53125-8.339844 13.21875-7.671875 21.011719l1.3125 15.390624 45.164063 45.164063 15.390624 1.3125c7.792969.667969 15.484376-2.140625 21.015626-7.671875l22.046874-22.046875c6.855469-6.855469 9.425782-16.902344 6.703126-26.207031l-9.277344-31.710938c-2.078125-7.09375-7.625-12.640625-14.71875-14.71875zm0 0" fill="#eab9a4"/><g fill="#ffc477"><path d="m353.445312 113.886719 45.164063 45.164062-22.535156 22.535157-45.164063-45.164063zm0 0"/><path d="m308.960938 158.371094 45.164062 45.164062-22.53125 22.53125-45.164062-45.164062zm0 0"/><path d="m264.480469 202.851562 45.164062 45.164063-22.535156 22.535156-45.164063-45.164062zm0 0"/></g><path d="m131.171875 430.695312-49.367187-49.367187c-8.011719-8.015625-8.011719-21.007813 0-29.023437 8.015624-8.011719 21.007812-8.011719 29.023437 0l49.367187 49.367187c8.011719 8.015625 8.011719 21.007813 0 29.023437-8.015624 8.011719-21.007812 8.011719-29.023437 0zm0 0" fill="#ffdaaa"/><path d="m353.496094 159.007812-22.582032-22.582031 22.535157-22.53125 22.578125 22.582031zm0 0" fill="#ffb864"/><path d="m309.011719 203.492188-22.582031-22.582032 22.535156-22.535156 22.582031 22.582031zm0 0" fill="#ffb864"/><path d="m264.527344 247.972656-22.582032-22.582031 22.535157-22.53125 22.582031 22.582031zm0 0" fill="#ffb864"/><path d="m477.308594 20.472656-31.714844-9.277344c-9.300781-2.71875-19.347656-.152343-26.203125 6.703126l-22.050781 22.050781c-5.53125 5.53125-8.335938 13.21875-7.671875 21.011719l1.316406 15.390624 22 21.996094c2.703125-3.347656 5.269531-6.808594 7.675781-10.382812 5.167969-7.671875 13.035156-18.828125 23.214844-31.707032 19.316406-24.433593 48.148438-21.066406 48.148438-21.066406-2.074219-7.09375-7.621094-12.640625-14.714844-14.71875zm0 0" fill="#e5a78c"/></svg>