<svg id="Capa_1" enable-background="new 0 0 512 512" height="512" viewBox="0 0 512 512" width="512" xmlns="http://www.w3.org/2000/svg"><g><g><path d="m285.376.062-21.663 1.666c-33.468 2.574-59.311 30.482-59.311 64.048v19.101h38.958c35.477 0 64.238-28.76 64.238-64.238 0-12.021-10.235-21.499-22.222-20.577z" fill="#ff7591"/></g><g><path d="m304.432 56.544-103.195 7.938c-21.506 1.654-38.112 19.587-38.112 41.157v37.187h185.751v-45.125c0-24.045-20.47-43.001-44.444-41.157z" fill="#fd5c70"/></g><g><path d="m283.006 58.192-81.769 6.29c-21.506 1.654-38.112 19.587-38.112 41.157v37.187h82.556v-43.557c-.001-21.304 16.204-39.049 37.325-41.077z" fill="#f24c68"/></g><g><path d="m121.846 204.743v-34.012c0-21.569 16.606-39.502 38.112-41.157l185.752-14.289c23.974-1.844 44.444 17.112 44.444 41.157v48.3h-268.308z" fill="#ff7591"/></g><g><path d="m239.829 123.431-79.871 6.144c-21.506 1.654-38.112 19.587-38.112 41.157v34.012h82.556v-40.461c0-20.662 15.242-37.976 35.427-40.852z" fill="#fd5c70"/></g><g><path d="m256 512c-24.511 0-46.13-16.05-53.222-39.512l-80.932-267.744h268.308l-80.932 267.744c-7.092 23.462-28.711 39.512-53.222 39.512z" fill="#ffbe74"/></g><g><path d="m209.218 204.743h-87.372l80.932 267.744c7.092 23.463 28.711 39.513 53.222 39.513 15.828 0 30.443-6.7 40.726-17.759z" fill="#f4a960"/></g><g><path d="m90.888 204.743c0-11.399 9.24-20.639 20.639-20.639h288.947c11.399 0 20.639 9.24 20.639 20.639 0 11.399-9.24 20.639-20.639 20.639h-288.947c-11.399 0-20.639-9.24-20.639-20.639z" fill="#ffd3a3"/></g><g><path d="m204.402 173.785v113.515c0 11.399 9.24 20.639 20.639 20.639 11.399 0 20.639-9.24 20.639-20.639v-41.278c0-11.399 9.24-20.639 20.639-20.639 11.399 0 20.639 9.24 20.639 20.639 0 11.399 9.24 20.639 20.639 20.639 11.399 0 20.639-9.24 20.639-20.639v-72.237z" fill="#ff7591"/></g><g><path d="m170.828 204.743c0-11.399 9.24-20.639 20.639-20.639h-79.94c-11.399 0-20.639 9.24-20.639 20.639 0 11.399 9.24 20.639 20.639 20.639h79.94c-11.399 0-20.639-9.24-20.639-20.639z" fill="#ffbe74"/></g><g fill="#ffd3a3"><path d="m272.249 369.404c-2.93-2.929-7.678-2.929-10.607 0l-5.642 5.641-5.642-5.642c-2.929-2.929-7.678-2.929-10.606 0-2.929 2.929-2.929 7.678 0 10.606l5.642 5.642-5.642 5.642c-2.929 2.929-2.929 7.678 0 10.606 1.464 1.464 3.384 2.197 5.303 2.197s3.839-.732 5.303-2.197l5.642-5.642 5.642 5.642c1.465 1.464 3.385 2.197 5.304 2.197s3.839-.732 5.304-2.197c2.929-2.929 2.929-7.678 0-10.606l-5.642-5.642 5.642-5.642c2.928-2.928 2.928-7.677-.001-10.605z"/><path d="m316.924 335.334 5.642-5.642c2.929-2.929 2.929-7.678 0-10.606-2.93-2.929-7.678-2.929-10.607 0l-5.642 5.642-5.642-5.642c-2.93-2.929-7.678-2.929-10.607 0s-2.929 7.678 0 10.606l5.642 5.642-5.642 5.642c-2.929 2.929-2.929 7.678 0 10.606 1.465 1.464 3.385 2.197 5.304 2.197s3.839-.732 5.304-2.197l5.642-5.642 5.642 5.642c1.465 1.465 3.384 2.197 5.304 2.197 1.919 0 3.839-.732 5.304-2.197 2.929-2.929 2.929-7.678 0-10.606z"/></g></g></svg>