<svg height="511pt" viewBox="-20 0 511 511.99318" width="511pt" xmlns="http://www.w3.org/2000/svg"><path d="m141.054688 295.175781c-49.675782-9.914062-99.566407 30.253907-111.433594 89.714844-11.867188 59.464844 18.785156 115.703125 68.464844 125.617187 49.675781 9.914063 99.566406-30.253906 111.433593-89.71875 11.863281-59.460937-18.789062-115.703124-68.464843-125.613281zm0 0" fill="#4f8e51"/><path d="m141.039062 295.175781c-23.492187-4.691406-52.144531 39.710938-64.015624 99.171875-11.730469 58.804688-2.644532 110.308594 20.273437 115.984375-49.214844-10.335937-79.488281-66.289062-67.683594-125.441406 11.867188-59.460937 61.753907-99.632813 111.425781-89.714844zm0 0" fill="#337233"/><path d="m432.015625 299.007812c-27.5625-63.175781-92.695313-95.722656-145.472656-72.695312-52.78125 23.027344-73.222657 92.910156-45.660157 156.085938 27.5625 63.175781 92.691407 95.722656 145.472657 72.695312s73.222656-92.90625 45.660156-156.085938zm0 0" fill="#4f8e51"/><path d="m386.332031 455.089844c-52.777343 23.023437-117.902343-9.519532-145.46875-72.695313-27.554687-63.171875-7.113281-133.054687 45.664063-156.078125-23.886719 10.417969-20.902344 70.082032 6.652344 133.257813 27.558593 63.171875 69.265624 105.933593 93.152343 95.515625zm0 0" fill="#337233"/><path d="m141.058594 325.902344c-1.046875 0-2.101563-.09375-3.167969-.277344-9.859375-1.738281-16.445313-11.140625-14.707031-21 7.804687-44.316406 43.234375-104.09375 92.460937-156.011719 43.445313-45.820312 118.90625-108.625 231.699219-147.613281 9.457031-3.269531 19.78125 1.746094 23.054688 11.210938 3.269531 9.460937-1.75 19.785156-11.210938 23.054687-105.871094 36.597656-176.566406 95.40625-217.230469 138.292969-53.367187 56.285156-78.101562 109.167968-83.066406 137.355468-1.550781 8.796876-9.199219 14.988282-17.832031 14.988282zm0 0" fill="#7c4f31"/><path d="m333.746094 96.933594c-13.554688 9.851562-24.664063 30.027344-30.507813 55.367187-5.589843 24.28125-5.40625 50.472657.5 68.332031 3.136719 9.503907-2.015625 19.761719-11.527343 22.894532-1.886719.632812-3.804688.929687-5.691407.929687-7.605469 0-14.6875-4.832031-17.203125-12.445312-7.6875-23.269531-8.421875-53.746094-2.492187-82.878907v-.011718l38.84375-58.859375zm0 0" fill="#7c4f31"/><path d="m107.140625 91.53125c-53.621094 32.605469-90.117187 82.660156-106.644531 138.433594 57.125 10.988281 118.359375 1.609375 171.976562-30.996094 53.617188-32.601562 90.113282-82.65625 106.640625-138.429688-57.121093-10.988281-118.355469-1.609374-171.972656 30.992188zm0 0" fill="#4f8e51"/><g fill="#77b27c"><path d="m347.171875 126.355469c-20.847656 46.753906-22.113281 97.269531-7.328125 142.359375 43.425781-19.132813 80.160156-53.832032 101.011719-100.585938 20.847656-46.753906 22.113281-97.269531 7.324219-142.359375-43.425782 19.132813-80.160157 53.832031-101.007813 100.585938zm0 0"/><path d="m175.402344 16.828125c-61.503906 12.464844-112.824219 47.15625-147.304688 94.007813 50 29.726562 110.78125 41.691406 172.285156 29.226562 61.5-12.46875 112.824219-47.160156 147.304688-94.011719-50.003906-29.722656-110.785156-41.691406-172.285156-29.222656zm0 0"/><path d="m413.890625 356.015625c0-21.429687-8.105469-38.804687-18.105469-38.804687-10.003906 0-18.109375 17.375-18.109375 38.804687s8.105469 38.804687 18.109375 38.804687c10 0 18.105469-17.375 18.105469-38.804687zm0 0"/><path d="m184.300781 407.363281c0-16.917969-5.488281-30.632812-12.253906-30.632812-6.769531 0-12.253906 13.714843-12.253906 30.632812s5.484375 30.632813 12.253906 30.632813c6.765625 0 12.253906-13.714844 12.253906-30.632813zm0 0"/></g></svg>