<svg id="Layer_1" enable-background="new 0 0 512 512" height="512" viewBox="0 0 512 512" width="512" xmlns="http://www.w3.org/2000/svg"><g><path d="m83.902 442.005c-15.062-13.822-23.637-33.328-23.637-53.772 0-15.311 4.815-30.233 13.764-42.657l16.255-22.565c8.949-12.423 13.764-27.346 13.764-42.657v-31.051l283.3.172v30.879c0 15.311 4.815 30.233 13.764 42.657l16.255 22.565c8.949 12.423 13.764 27.346 13.764 42.657 0 20.443-8.574 39.949-23.637 53.772z" fill="#6f6571"/><path d="m451.734 388.234c0 10.219-2.143 20.212-6.171 29.37s-9.931 17.492-17.462 24.405h-30.905c7.531-6.913 13.433-15.247 17.462-24.405 4.028-9.158 6.171-19.151 6.171-29.37 0-15.308-4.811-30.236-13.763-42.66l-16.256-22.561c-8.952-12.424-13.763-27.351-13.763-42.66v-30.875h30.905v30.875c0 15.308 4.811 30.236 13.763 42.66l16.256 22.561c8.953 12.424 13.763 27.352 13.763 42.66z" fill="#5d5360"/><path d="m316.351 396.62 38.642-40.896c9.311-9.854 2.325-26.065-11.232-26.065h-202.307c-13.557 0-20.543 16.212-11.232 26.065l38.642 40.896 87.136 36.571z" fill="#fc7585"/><path d="m381.775 355.722-38.642 40.898-40.088 9.958 47.825-50.857c9.313-9.849 2.328-26.064-11.229-26.064h30.905c13.557.001 20.542 16.216 11.229 26.065z" fill="#f46079"/><path d="m366.744 176.161s29.36 4.292 41.211 23.843c10.375 5.131 17.509 15.823 17.509 28.181 0 17.353-14.067 31.42-31.42 31.42h-27.3z" fill="#bc845e"/><path d="m145.256 259.606h-27.3c-17.353 0-31.42-14.067-31.42-31.42 0-12.359 7.135-23.051 17.511-28.182 11.849-23.671 41.21-23.842 41.21-23.842v83.444z" fill="#bc845e"/><path d="m394.559 235.911h-27.815c-4.268 0-7.726-3.459-7.726-7.726s3.459-7.726 7.726-7.726h27.815c4.268 0 7.726 3.459 7.726 7.726.001 4.267-3.458 7.726-7.726 7.726z" fill="#ad775c"/><path d="m145.256 235.911h-27.815c-4.268 0-7.726-3.459-7.726-7.726s3.459-7.726 7.726-7.726h27.815c4.268 0 7.726 3.459 7.726 7.726s-3.459 7.726-7.726 7.726z" fill="#ad775c"/><path d="m211.187 333.779v57.69c0 2.845-2.306 5.151-5.151 5.151h-37.172c-45.516 0-76.148 36.898-76.148 82.414l7.726 31.936h311.63l27.815-31.936c0-45.516-36.898-82.414-82.414-82.414h-51.509c-2.845 0-5.151-2.306-5.151-5.151v-57.69z" fill="#bc845e"/><path d="m347.119 399.205c-6.572-1.69-13.454-2.586-20.552-2.586h16.565c1.361.815 2.689 1.68 3.987 2.586z" fill="#ad775c"/><path d="m366.744 239.517c0 66.852-72.744 120.069-126.197 120.069-59.555-7.588-105.594-58.452-105.594-120.069v-11.332l40.013-94.04 172.376-3.484z" fill="#d19a6e"/><path d="m377.046 228.185v11.332c0 66.848-54.198 121.046-121.046 121.046-5.233 0-10.395-.33-15.453-.979 59.555-7.592 105.594-58.452 105.594-120.068v-26.785z" fill="#bc845e"/><g fill="#ad775c"><path d="m255.923 308.076c-15.063 0-30.097-5.313-42.611-15.941-3.253-2.763-3.65-7.638-.888-10.891 2.763-3.251 7.639-3.65 10.89-.888 19.157 16.268 46.05 16.26 65.398-.023 3.267-2.748 8.139-2.328 10.887.938 2.746 3.265 2.327 8.139-.938 10.886-12.611 10.612-27.69 15.919-42.738 15.919z"/><path d="m317.296 251.364c-4.268 0-7.726-3.459-7.726-7.726v-15.453c0-4.267 3.459-7.726 7.726-7.726s7.726 3.459 7.726 7.726v15.453c0 4.267-3.459 7.726-7.726 7.726z"/><path d="m194.704 251.364c-4.268 0-7.726-3.459-7.726-7.726v-15.453c0-4.267 3.459-7.726 7.726-7.726s7.726 3.459 7.726 7.726v15.453c.001 4.267-3.458 7.726-7.726 7.726z"/></g><path d="m296.692 444.8c-12.984 3.12-24.471 10.084-33.194 19.619-4.003 4.376-10.992 4.376-14.995 0-12.053-13.176-29.383-21.441-48.647-21.441-36.413 0-65.932 29.519-65.932 65.932v3.09h213.247l10.302-3.091c0-36.413-34.64-65.931-60.781-64.109z" fill="#cdf2f9"/><path d="m378.076 508.909v3.091h-30.905v-3.091c0-31.101-21.52-57.165-50.479-64.108 4.955-1.195 10.127-1.823 15.453-1.823 36.417 0 65.931 29.515 65.931 65.931z" fill="#a4e8f9"/><path d="m382.197 156.588-5.151 40.177v31.421h-15.453c-8.53 0-15.453-6.923-15.453-15.453v-26.27c0-8.53-6.923-15.453-15.453-15.453h-43.783c-8.633 0-16.493-3.534-22.19-9.23-5.697-5.697-9.23-13.557-9.23-22.19 0 17.286-14.134 31.421-31.421 31.421h-42.753c-8.53 0-15.453 6.923-15.453 15.453v26.27c0 8.53-6.923 15.453-15.453 15.453h-15.453v-31.421h-16.998c-4.996 0-9.715 1.164-13.907 3.245v-43.422c0-68.27 55.352-123.622 123.622-123.622h30.905c68.273-.001 123.624 55.35 123.624 123.621z" fill="#6f6571"/><path d="m407.952 156.588v43.422c-4.193-2.081-8.911-3.245-13.907-3.245h-16.998v-40.177c0-68.27-55.352-123.622-123.622-123.622h30.905c68.27 0 123.622 55.351 123.622 123.622z" fill="#5d5360"/><path d="m168.867 396.62c-20.943 12.62-34.944 35.582-34.944 61.811v53.569h-41.207c-11.384 0-20.604-9.22-20.604-20.604v-12.362c0-45.513 36.901-82.414 82.414-82.414z" fill="#fc8d94"/><path d="m419.284 479.034v12.362c0 11.383-9.22 20.604-20.604 20.604h-20.604v-53.569c0-26.228-14-49.191-34.944-61.811l14.34 3.091c36.057 12.361 61.812 33.81 61.812 79.323z" fill="#fc8d94"/><path d="m439.887 479.034v12.362c0 11.383-9.22 20.604-20.604 20.604h-30.905c11.384 0 20.604-9.22 20.604-20.604v-12.362c0-38.415-26.29-70.701-61.862-79.829-1.298-.907-2.627-1.772-3.987-2.586h14.34c45.513.001 82.414 36.902 82.414 82.415z" fill="#fc7585"/><path d="m187.465 74.115-14.072-54.726c-1.341-5.214 5.194-8.743 8.819-4.763l27.287 29.96c4.752 5.218 13.221 4.238 16.657-1.927l20.818-37.356c3.941-7.071 14.114-7.071 18.055 0l20.818 37.356c3.066 5.501 10.14 6.873 15.004 3.397 2.281 3.07 8.977 34.04-19.095 43.569h-74.286c-9.427.001-17.658-6.381-20.005-15.51z" fill="#ffe07d"/><path d="m338.61 19.388-14.072 54.723c-2.349 9.138-10.58 15.515-20.006 15.515h-30.905c9.426 0 17.657-6.377 20.006-15.515l7.211-28.062c.587-.412 1.143-.896 1.659-1.463l27.289-29.958c3.626-3.986 10.157-.453 8.818 4.76z" fill="#ffd064"/></g></svg>