<svg id="Capa_1" enable-background="new 0 0 512 512" height="512" viewBox="0 0 512 512" width="512" xmlns="http://www.w3.org/2000/svg"><g><path d="m71.521 191.07v219.749c0 8.797 7.131 15.928 15.928 15.928 8.411 0 15.373-6.54 15.897-14.936l13.781-220.742h-45.606z" fill="#596c76"/><path d="m394.874 191.07 13.781 220.742c.524 8.395 7.486 14.936 15.897 14.936 8.797 0 15.928-7.131 15.928-15.928v-219.75z" fill="#596c76"/><path d="m28.33 132.28v40.246c0 10.241 8.302 18.543 18.543 18.543h418.254c10.241 0 18.543-8.302 18.543-18.543v-40.246z" fill="#aa6a51"/><g><path d="m499.638 85.253h-487.276c-6.827 0-12.362 5.535-12.362 12.362v22.303c0 6.827 5.535 12.362 12.362 12.362h487.276c6.827 0 12.362-5.535 12.362-12.362v-22.303c0-6.827-5.535-12.362-12.362-12.362z" fill="#bc7c63"/><path d="m499.638 85.253h-40.883c6.827 0 12.362 5.535 12.362 12.362v22.303c0 6.827-5.535 12.362-12.362 12.362h40.883c6.827 0 12.362-5.535 12.362-12.362v-22.303c0-6.827-5.535-12.362-12.362-12.362z" fill="#aa6a51"/></g><path d="m442.787 132.28v40.246c0 10.241-8.302 18.543-18.543 18.543h40.883c10.241 0 18.543-8.302 18.543-18.543v-40.246z" fill="#935b44"/><g fill="#465a61"><path d="m71.521 220.272h43.782l1.823-29.202h-45.605z"/><path d="m396.697 220.272h43.782v-29.202h-45.605z"/></g></g></svg>