<?xml version="1.0" encoding="iso-8859-1"?>
<!-- Generator: Adobe Illustrator 19.0.0, SVG Export Plug-In . SVG Version: 6.00 Build 0)  -->
<svg version="1.1" id="Capa_1" xmlns="http://www.w3.org/2000/svg" xmlns:xlink="http://www.w3.org/1999/xlink" x="0px" y="0px"
	 viewBox="0 0 512 512" style="enable-background:new 0 0 512 512;" xml:space="preserve">
<path style="fill:#DFEBEF;" d="M256,512C14.598,510.743,73.926,314.071,147.913,207.808c46.616-66.951,23.035-131.77-0.958-170.722
	c-3.534-5.738-7.077-10.91-10.405-15.453c-1.751-2.39-3.451-4.595-5.048-6.624C126.692,8.932,131.029,0,138.776,0h234.449
	c7.747,0,12.084,8.932,7.273,15.01c-1.597,2.029-3.297,4.234-5.048,6.624c-3.327,4.543-6.871,9.715-10.405,15.453
	c-23.993,38.951-47.574,103.77-0.958,170.722C438.074,314.071,497.402,510.743,256,512z"/>
<g>
	<path style="fill:#AECBCE;" d="M401.884,274.348l-1.143,0.422c-39.384,14.433-90.79,22.376-144.74,22.376
		s-105.357-7.943-144.74-22.376l-1.143-0.422c1.854-4.09,3.77-8.149,5.748-12.156c7.86-15.947,16.637-31.173,25.775-45.091
		c2.071-3.173,4.172-6.264,6.274-9.292c0.556-0.793,1.092-1.587,1.617-2.38c31.637,8.901,68.342,13.588,106.469,13.588
		s74.832-4.687,106.469-13.588c0.525,0.793,1.061,1.587,1.617,2.38c2.102,3.029,4.203,6.119,6.274,9.292
		c9.138,13.918,17.915,29.144,25.775,45.091C398.113,266.199,400.03,270.258,401.884,274.348z"/>
	<path style="fill:#AECBCE;" d="M428.72,373.647c-40.105,21.912-103.966,34.872-172.72,34.872s-132.615-12.96-172.72-34.872
		c0.268-4.842,0.742-9.725,1.38-14.639c3.667-28.093,13.052-57.216,25.456-84.66c1.854-4.09,3.77-8.149,5.748-12.156
		c1.999-4.059,4.059-8.066,6.171-12.022c36.314,13.032,83.795,20.191,133.965,20.191c50.16,0,97.651-7.16,133.965-20.191
		c2.112,3.956,4.172,7.963,6.171,12.022c1.978,4.007,3.894,8.066,5.748,12.156c12.403,27.444,21.788,56.567,25.456,84.66
		C427.978,363.922,428.452,368.805,428.72,373.647z"/>
</g>
<path style="fill:#FF0435;" d="M427.34,359.008c-36.118,21.716-99.361,36.118-171.34,36.118s-135.222-14.402-171.34-36.118
	c3.667-28.093,13.052-57.216,25.456-84.66c1.854-4.09,3.77-8.149,5.748-12.156c36.468,13.361,85.814,21.562,140.136,21.562
	s103.667-8.2,140.136-21.562c1.978,4.007,3.894,8.066,5.748,12.156C414.287,301.792,423.672,330.915,427.34,359.008z"/>
<path style="fill:#B70000;" d="M401.884,274.348l-1.143,0.422c-39.384,14.433-90.79,22.376-144.74,22.376
	s-105.357-7.943-144.74-22.376l-1.143-0.422c1.854-4.09,3.77-8.149,5.748-12.156c36.468,13.361,85.814,21.562,140.136,21.562
	s103.667-8.2,140.136-21.562C398.113,266.199,400.03,270.258,401.884,274.348z"/>
<path style="fill:#95B6BA;" d="M396.136,262.191c-36.468,13.361-85.814,21.562-140.136,21.562s-103.667-8.2-140.136-21.562
	c7.86-15.947,16.637-31.173,25.775-45.091c32.585,9.663,71.958,15.309,114.36,15.309s81.776-5.645,114.36-15.309
	C379.498,231.018,388.275,246.244,396.136,262.191z"/>
<path style="fill:#FF0435;" d="M375.449,21.634c-3.327,4.543-6.871,9.715-10.405,15.453H146.955
	c-3.534-5.738-7.077-10.91-10.405-15.453C136.55,21.634,375.449,21.634,375.449,21.634z"/>
<g>
</g>
<g>
</g>
<g>
</g>
<g>
</g>
<g>
</g>
<g>
</g>
<g>
</g>
<g>
</g>
<g>
</g>
<g>
</g>
<g>
</g>
<g>
</g>
<g>
</g>
<g>
</g>
<g>
</g>
</svg>
