<svg id="Capa_1" enable-background="new 0 0 512 512" height="512" viewBox="0 0 512 512" width="512" xmlns="http://www.w3.org/2000/svg"><path d="m0 419.804c.031 2.915.047 4.52.078 7.435 118.246 114.241 306.719 113 423.44-3.721 116.722-116.721 117.962-305.194 3.722-423.44-2.915-.031-4.52-.047-7.435-.078z" fill="#98db7c"/><path d="m423.519 395.446c-113.259 113.258-294.062 117.765-412.723 13.562l-10.796 10.796c.031 2.915.047 4.52.078 7.435 118.246 114.241 306.719 113.001 423.441-3.721 62.559-62.559 91.939-145.728 88.152-227.65-3.355 72.57-32.736 144.161-88.152 199.578z" fill="#82d361"/><path d="m31.264 388.541c.001.001.002.002.003.003 98.66 98.659 258.618 98.659 357.277 0s98.659-258.618 0-357.277c-.001-.001-.002-.002-.003-.003z" fill="#ff4755"/><path d="m388.544 360.471c-93.936 93.936-243.44 98.429-342.698 13.487l-14.583 14.583c.001.001.002.002.003.003 98.66 98.659 258.618 98.659 357.277 0 52.901-52.901 77.421-123.426 73.591-192.675-3.312 59.899-27.832 118.844-73.59 164.602z" fill="#fc2b3a"/><g fill="#5b5b5b"><path d="m301.174 316.025c3.967 0 7.697-1.545 10.503-4.35s4.351-6.535 4.351-10.503-1.545-7.697-4.35-10.503c-.001-.001-.001-.001-.002-.002-2.112-2.112-18.071-14.15-26.615-5.607-2.565 2.566-4.802 7.501-.891 16.44 1.711 3.911 4.324 8 6.5 10.174 2.805 2.806 6.536 4.351 10.504 4.351z"/><path d="m223.897 321.451c-11.954 1.764-11.807 21.749-11.372 24.708 1.086 7.373 7.444 12.69 14.687 12.69 6.175 0 11.821-3.957 13.953-9.745 2.314-6.281-.4-13.067-3.54-18.562-4.842-8.471-10.137-9.614-13.728-9.091z"/><path d="m131.649 343.774c-1.388 3.716-1.244 7.752.403 11.361 2.474 5.419 8.113 8.909 14.077 8.683 5.938-.225 11.279-4.099 13.352-9.656 1.077-2.884 1.755-7.688 1.688-11.955-.153-9.757-4.238-13.318-7.637-14.586-11.322-4.228-20.838 13.354-21.883 16.153z"/><path d="m321.453 223.896c-1.762 11.956 17.421 17.581 20.375 18.016 8.018 1.176 15.681-4.52 16.863-12.53 1.181-8.016-4.526-15.682-12.53-16.861-2.96-.431-22.945-.581-24.708 11.375z"/><path d="m342.208 161.167c3.952.062 8.224-.294 11.955-1.688 7.577-2.827 11.558-11.516 8.722-19.109-2.828-7.578-11.515-11.557-19.109-8.724-2.884 1.076-6.959 3.712-10.139 6.559-7.271 6.508-7.284 11.927-6.015 15.326s4.829 7.483 14.586 7.636z"/></g></svg>