<?xml version="1.0" encoding="iso-8859-1"?>
<!-- Generator: Adobe Illustrator 19.0.0, SVG Export Plug-In . SVG Version: 6.00 Build 0)  -->
<svg version="1.1" id="Capa_1" xmlns="http://www.w3.org/2000/svg" xmlns:xlink="http://www.w3.org/1999/xlink" x="0px" y="0px"
	 viewBox="0 0 512.001 512.001" style="enable-background:new 0 0 512.001 512.001;" xml:space="preserve">
<path style="fill:#C0BCC1;" d="M239.468,112.936l-36.239-57.983c-2.666-4.265-0.958-10.008,3.674-11.969
	c117.552-49.758,222.348,8.77,299.67,104.413c3.546,4.386,5.427,9.905,5.427,15.545V319.4L239.468,112.936z"/>
<g>
	<path style="fill:#4B3F4E;" d="M390.186,159.734c-5.421-63.243-27.988-105.59-42.891-127.32
		c-43.818-12.072-90.971-10.349-140.392,10.571c-4.632,1.96-6.34,7.703-3.675,11.968l36.24,57.983l114.72,86.909
		C377.486,195.247,392.21,183.339,390.186,159.734z"/>
	<path style="fill:#4B3F4E;" d="M405.84,238.975l26.911,20.387c17.795-42.147,26.286-98.561,13.554-173.428
		c-12.697-10.437-25.869-19.79-39.484-27.852C426.23,138.176,421.297,196.682,405.84,238.975z"/>
	<path style="fill:#4B3F4E;" d="M471.543,108.689c5.764,68.364-5.928,120.869-25.257,160.928l26.484,20.064
		c18.816-36.577,32.551-83.545,33.195-143.017C495.029,133.187,483.533,120.479,471.543,108.689z"/>
</g>
<path style="fill:#DBD9DC;" d="M322.05,87.167c0,0-49.548-15.524-115.616,34.027C169.446,148.935,37.801,265.616,5.494,294.635
	c-4.612,4.143-6.541,10.487-4.939,16.476c5.145,19.239,21.298,61.637,51.866,64.724c2.866,0.289,7.692-1.319,13.524-4.031
	l28.374,19.195c4.337,3.05,9.835,3.874,14.842,2.127c35.121-12.253,130.265-50.58,194.52-74.71
	c17.803,39.407,48.221,108.354,70.588,167.588c3.233,8.561,12.776,12.828,21.313,9.53c24.148-9.329,71.309-30.737,106.886-66.695
	c6.124-6.19,9.533-14.584,9.533-23.291V284.865c0-10.207-2.804-20.227-7.94-29.048C415.478,103.674,322.05,87.167,322.05,87.167z"/>
<path style="fill:#5D5360;" d="M113.754,288.236c-37.101-10.415-47.279-38.442-49.366-45.879
	c-25.936,22.854-48.035,42.525-58.894,52.278c-4.612,4.143-6.541,10.487-4.939,16.476c5.145,19.239,21.298,61.637,51.866,64.724
	c2.866,0.289,7.692-1.319,13.524-4.031l28.374,19.195c4.337,3.05,9.835,3.874,14.842,2.127c18.19-6.346,52.507-19.697,90.267-34.436
	C197.578,346.956,186.019,308.522,113.754,288.236z"/>
<path style="fill:#4B3F4E;" d="M33.004,337.981c-2.641,0-5.283-1.008-7.299-3.024c-4.032-4.033-4.032-10.565,0-14.598l8.259-8.259
	c4.032-4.033,10.565-4.033,14.598,0s4.032,10.565,0,14.598l-8.259,8.259C38.287,336.973,35.645,337.981,33.004,337.981z"/>
<path style="fill:#C0BCC1;" d="M270.761,19.476c-10.547,37.066-3.612,73.076-0.026,87.2c0.935,3.682,4.216,6.26,8.015,6.26h34.893
	c4.733,0,8.428-3.978,8.254-8.708c-2.358-63.867-30.552-83.004-43.256-88.405C275.444,14.464,271.711,16.136,270.761,19.476z"/>
<path style="fill:#4B3F4E;" d="M132.28,339.474c-2.657-3.71-7.819-4.573-11.521-1.919c-18.81,13.433-41.105,27.52-54.754,34.289
	l15.5,10.486c17.675-9.553,37.922-23.527,48.852-31.338C134.07,348.345,134.929,343.184,132.28,339.474z"/>
<path style="fill:#5D5360;" d="M196.799,239.567c-61.937-7.668-79.084-33.478-82.733-40.715
	c-6.422,5.585-12.867,11.207-19.263,16.801c17.321,39.922,60.431,50.063,66.898,51.443c69.059,14.736,79.881,60.273,81.577,74.497
	c15.097-5.869,29.947-11.607,43.879-16.917C285.551,289.203,263.184,247.786,196.799,239.567z"/>
<path style="fill:#4B3F4E;" d="M239.468,216.168L239.468,216.168c-13.683,0-24.776-11.092-24.776-24.776v-8.259
	c0-13.683,11.092-24.776,24.776-24.776l0,0c13.683,0,24.776,11.092,24.776,24.776v8.259
	C264.244,205.075,253.151,216.168,239.468,216.168z"/>
<path style="fill:#5D5360;" d="M239.468,158.358v28.905c0,6.842,5.546,12.388,12.388,12.388c6.842,0,12.388-5.546,12.388-12.388
	v-4.129C264.244,169.45,253.151,158.358,239.468,158.358z"/>
<circle style="fill:#FFFFFF;" cx="239.47" cy="174.87" r="8.259"/>
<path style="fill:#C9C6CA;" d="M320.763,153.672c-3.714,2.637-4.585,7.799-1.944,11.509c0.464,0.661,46.374,66.076,31.022,112.934
	c-6.101,18.614-21.63,32.171-46.16,40.301c2.087,4.619,4.375,9.713,6.775,15.08c28.85-9.952,47.425-26.829,55.095-50.275
	c17.916-54.794-31.175-124.661-33.276-127.612C329.63,151.897,324.485,151.026,320.763,153.672z"/>
<g>
	<path style="fill:#5D5360;" d="M309.439,197.213c-3.162-3.061-8.193,0.257-6.84,4.444c15.831,49.023,6.177,91.021-6.261,119.532
		c2.461-0.931,4.963-1.881,7.344-2.775c0.121-0.04,0.243-0.081,0.364-0.121c20.323-6.805,34.403-25.955,35.344-47.366
		C340.993,234.395,322.454,209.811,309.439,197.213z"/>
	<path style="fill:#5D5360;" d="M326.87,370.686c39.773-21.056,115.376-77.414,124.519-190.443c-0.483-0.574-0.966-1.14-1.448-1.707
		c-1.968-2.315-3.932-4.59-5.883-6.792c-0.778-0.877-1.552-1.731-2.327-2.59c-1.879-2.085-3.752-4.132-5.612-6.114
		c-0.884-0.941-1.762-1.857-2.641-2.775c-1.724-1.802-3.44-3.573-5.145-5.288c-0.985-0.991-1.965-1.956-2.943-2.919
		c-1.6-1.575-3.193-3.124-4.774-4.624c-0.418-0.396-0.831-0.776-1.248-1.167c3.222,121.893-53.699,178.626-101.397,204.137
		C320.831,356.872,323.803,363.644,326.87,370.686z"/>
	<path style="fill:#5D5360;" d="M336.654,393.359c2.642,6.179,5.307,12.46,7.978,18.819c20.884-10.493,52.751-29.348,77.391-53.437
		c26.515-25.917,55.08-65.027,71.147-120.843c-0.11-0.174-0.219-0.343-0.329-0.517c-4.065-6.45-8.13-12.65-12.187-18.569
		c-0.02-0.029-0.04-0.06-0.06-0.089c-4.032-5.879-8.054-11.473-12.062-16.841c-0.146-0.195-0.29-0.382-0.436-0.576
		C449.073,307.871,383.888,368.228,336.654,393.359z"/>
	<path style="fill:#5D5360;" d="M511.536,278.058c-0.1-0.806-0.249-1.603-0.384-2.404c-0.236-1.418-0.524-2.824-0.865-4.22
		c-0.235-0.953-0.474-1.904-0.757-2.844c-0.379-1.266-0.833-2.506-1.298-3.744c-0.342-0.91-0.64-1.835-1.026-2.729
		c-35.979,96.006-102.931,151.356-153.077,172.942c2.638,6.437,5.25,12.875,7.815,19.294c20.377-8.66,51.46-24.062,77.076-44.2
		c23.728-18.653,50.439-45.478,72.98-82.818v-42.472C512,282.58,511.811,280.312,511.536,278.058z"/>
	<path style="fill:#5D5360;" d="M371.31,478.245c0.995,2.594,1.978,5.174,2.947,7.737c3.24,8.574,12.768,12.857,21.318,9.554
		c24.146-9.327,71.312-30.736,106.893-66.697c6.124-6.19,9.533-14.584,9.533-23.291v-48.983
		C479.522,413.552,426.308,455.211,371.31,478.245z"/>
</g>
<g>
</g>
<g>
</g>
<g>
</g>
<g>
</g>
<g>
</g>
<g>
</g>
<g>
</g>
<g>
</g>
<g>
</g>
<g>
</g>
<g>
</g>
<g>
</g>
<g>
</g>
<g>
</g>
<g>
</g>
</svg>
