<?xml version="1.0" encoding="iso-8859-1"?>
<!-- Generator: Adobe Illustrator 19.0.0, SVG Export Plug-In . SVG Version: 6.00 Build 0)  -->
<svg xmlns="http://www.w3.org/2000/svg" xmlns:xlink="http://www.w3.org/1999/xlink" version="1.1" id="Layer_1" x="0px" y="0px" viewBox="0 0 491.776 491.776" style="enable-background:new 0 0 491.776 491.776;" xml:space="preserve" width="512" height="512">
<g>
	<path style="fill:#4AA032;" d="M292.229,68.239c-3.043,0-5.906-1.866-7.03-4.885c-1.445-3.882,0.53-8.2,4.412-9.646   c7.651-2.848,13.404-5.794,17.724-8.572c-9.775-3.719-16.334-9.185-18.933-15.957c-1.798-4.686-2.514-12.082,4.286-20.706   c5.083-6.441,12.644-9.432,20.757-8.202c9.357,1.417,17.648,8.161,21.122,17.181c2.21,5.739,2.273,11.903,0.313,17.871   c15.107,0.806,31.425-1.744,44.645-7.183c3.831-1.574,8.213,0.253,9.789,4.083c1.576,3.831-0.252,8.213-4.083,9.789   c-17.899,7.363-39.813,10.103-59.444,7.538c-7.031,7.063-17.414,13.178-30.942,18.214   C293.983,68.086,293.098,68.239,292.229,68.239z M309.927,15.003c-2.181,0-4.014,0.925-5.462,2.76   c-1.953,2.477-2.646,4.511-2.058,6.043c1.179,3.073,6.894,6.95,17.15,9.391c1.908-3.581,2.264-7.105,1.013-10.354   c-1.522-3.953-5.375-7.136-9.37-7.741C310.763,15.036,310.339,15.003,309.927,15.003z"/>
	<path style="fill:#70D65B;" d="M396.462,59.529c0.497,0.153,0.994,0.306,1.491,0.459c46.466,14.295,71.408,64.932,53.988,110.32   C405.575,291.11,321.968,397.491,210.446,472.581c-62.64,42.176-148.256,11.674-170.46-60.503c-0.243-0.791-0.487-1.583-0.73-2.374   c-16.799-54.606,10.053-112.838,62.175-136.234C181.227,237.653,251.391,177,299.579,96.562   C319.455,63.383,359.494,48.156,396.462,59.529z"/>
	<path style="fill:#58B741;" d="M84.163,472.081c-20.201-13.729-36.246-34.196-44.177-59.998c-0.246-0.793-0.484-1.579-0.73-2.372   c-16.796-54.614,10.058-112.843,62.174-136.238c79.798-35.818,149.967-96.469,198.152-176.913   c19.878-33.172,59.914-48.403,96.883-37.025c0.498,0.147,0.99,0.302,1.495,0.456c20.938,6.436,37.502,20.264,47.792,37.656   c-5.58-3.292-11.645-5.987-18.123-7.987c-0.505-0.154-0.997-0.309-1.495-0.456c-36.969-11.378-77.005,3.853-96.883,37.025   c-48.185,80.444-118.354,141.095-198.152,176.913c-52.116,23.394-78.97,81.623-62.174,136.238c0.246,0.793,0.484,1.579,0.73,2.372   C73.087,452.891,78.028,463.041,84.163,472.081z"/>
	<path style="fill:#4AA032;" d="M348.369,59.083l50.719-50.719c4.137-4.137,10.516-5.028,15.627-2.183l34.298,19.088   c4.43,2.465,7.039,7.266,6.697,12.325l-4.756,70.418l-26.354,13.261c-3.02,1.52-6.702,0.428-8.406-2.493l0,0   c-9.466-16.227-28.89-23.759-46.821-18.156l-6.266,1.958c-3.701,1.157-7.572-1.217-8.22-5.04L348.369,59.083z"/>
</g>















</svg>
